<svg width="27" height="25" viewBox="0 0 27 25" fill="none" xmlns="http://www.w3.org/2000/svg">
<path d="M26.1953 12.5275L26.1731 12.5386L22.4333 3.25484H24.1398C24.4457 3.25484 24.6938 3.00741 24.6938 2.70223C24.6938 2.39706 24.4457 2.14963 24.1398 2.14963H13.7127V0.552604C13.7127 0.247428 13.4646 0 13.1586 0C12.8527 0 12.6046 0.247428 12.6046 0.552604V2.1441H2.18305C1.87708 2.1441 1.62901 2.39153 1.62901 2.69671C1.62901 3.00188 1.87708 3.24931 2.18305 3.24931H3.96153L0.216198 12.5275C0.188496 12.5922 0.173468 12.6617 0.171875 12.732C0.171875 15.2697 2.23444 17.3269 4.77874 17.3269C7.32304 17.3269 9.3856 15.2697 9.3856 12.732C9.38401 12.6617 9.36898 12.5922 9.34128 12.5275L5.60149 3.24378H12.6046V20.3303C9.96181 20.5292 7.89523 22.1318 7.89523 24.0714C7.89523 24.3766 8.1433 24.624 8.44927 24.624H17.868C18.174 24.624 18.422 24.3766 18.422 24.0714C18.422 22.1318 16.3555 20.5292 13.7127 20.3303V3.24378H20.7878L17.0702 12.5275C17.0425 12.5922 17.0274 12.6617 17.0259 12.732C17.0259 15.2697 19.0884 17.3269 21.6327 17.3269C24.177 17.3269 26.2396 15.2697 26.2396 12.732C26.238 12.6617 26.223 12.5922 26.1953 12.5275ZM4.77597 16.23C3.05996 16.2276 1.59853 14.9852 1.32428 13.2956H8.20549C7.93263 14.977 6.4836 16.2168 4.77597 16.23ZM8.00604 12.1904H1.55698L4.78705 4.17216L8.00604 12.1904ZM17.2142 23.5188H9.0975C9.50749 22.3307 11.1973 21.4134 13.1531 21.4134C15.1089 21.4134 16.8042 22.3307 17.2142 23.5188ZM21.6078 4.17768L24.8268 12.1904H18.3777L21.6078 4.17768ZM21.6078 16.23V16.2355C19.8984 16.2219 18.4487 14.9792 18.1783 13.2956H25.0595C24.7852 14.9852 23.3238 16.2276 21.6078 16.23Z" fill="black"/>
</svg>
