<svg width="75" height="78" viewBox="0 0 75 78" fill="none" xmlns="http://www.w3.org/2000/svg">
<path d="M22.4196 13.5635C21.7932 13.5635 21.2852 14.1084 21.2852 14.7808C21.2852 16.2575 20.1656 17.459 18.7895 17.459C17.4134 17.459 16.2939 16.2575 16.2939 14.7808C16.2939 13.3041 17.4134 12.1027 18.7895 12.1027C19.416 12.1027 19.924 11.5577 19.924 10.8853C19.924 10.2129 19.4161 9.66797 18.7895 9.66797C16.1624 9.66797 14.0251 11.9616 14.0251 14.7807C14.0251 17.5997 16.1625 19.8934 18.7895 19.8934C21.4165 19.8934 23.5539 17.5997 23.5539 14.7807C23.5541 14.1084 23.0461 13.5635 22.4196 13.5635Z" fill="white"/>
<path d="M22.4196 27.8467C21.7932 27.8467 21.2852 28.3916 21.2852 29.064C21.2852 30.5407 20.1656 31.7422 18.7895 31.7422C17.4134 31.7422 16.2939 30.5407 16.2939 29.064C16.2939 27.5873 17.4134 26.3859 18.7895 26.3859C19.416 26.3859 19.924 25.8409 19.924 25.1685C19.924 24.4962 19.4161 23.9512 18.7895 23.9512C16.1624 23.9512 14.0251 26.2448 14.0251 29.0639C14.0251 31.8829 16.1625 34.1766 18.7895 34.1766C21.4165 34.1766 23.5539 31.8829 23.5539 29.0639C23.5541 28.3918 23.0461 27.8467 22.4196 27.8467Z" fill="white"/>
<path d="M40.8394 31.3076H32.3693C31.7429 31.3076 31.2349 31.8526 31.2349 32.525C31.2349 33.1973 31.7427 33.7423 32.3693 33.7423H40.8394C41.4658 33.7423 41.9738 33.1973 41.9738 32.525C41.9738 31.8526 41.466 31.3076 40.8394 31.3076Z" fill="white"/>
<path d="M40.8394 26.1143H32.3693C31.7429 26.1143 31.2349 26.6592 31.2349 27.3316C31.2349 28.004 31.7427 28.549 32.3693 28.549H40.8394C41.4658 28.549 41.9738 28.004 41.9738 27.3316C41.9738 26.6592 41.466 26.1143 40.8394 26.1143Z" fill="white"/>
<path d="M38.4194 45.5908H32.3693C31.7429 45.5908 31.2349 46.1358 31.2349 46.8082C31.2349 47.4805 31.7427 48.0255 32.3693 48.0255H38.4194C39.0458 48.0255 39.5538 47.4805 39.5538 46.8082C39.5538 46.1358 39.0458 45.5908 38.4194 45.5908Z" fill="white"/>
<path d="M40.8394 40.3975H32.3693C31.7429 40.3975 31.2349 40.9424 31.2349 41.6148C31.2349 42.2872 31.7427 42.8322 32.3693 42.8322H40.8394C41.4658 42.8322 41.9738 42.2872 41.9738 41.6148C41.9738 40.9424 41.466 40.3975 40.8394 40.3975Z" fill="white"/>
<path d="M51.7295 17.0244H32.3693C31.7429 17.0244 31.2349 17.5694 31.2349 18.2418C31.2349 18.9142 31.7427 19.4592 32.3693 19.4592H51.7294C52.3558 19.4592 52.8638 18.9142 52.8638 18.2418C52.8638 17.5694 52.3559 17.0244 51.7295 17.0244Z" fill="white"/>
<path d="M46.8894 11.8311H32.3693C31.7429 11.8311 31.2349 12.376 31.2349 13.0484C31.2349 13.7208 31.7427 14.2658 32.3693 14.2658H46.8894C47.5158 14.2658 48.0238 13.7208 48.0238 13.0484C48.0238 12.376 47.516 11.8311 46.8894 11.8311Z" fill="white"/>
<path d="M22.4196 42.1299C21.7932 42.1299 21.2852 42.6749 21.2852 43.3473C21.2852 44.824 20.1656 46.0254 18.7895 46.0254C17.4134 46.0254 16.2939 44.824 16.2939 43.3473C16.2939 41.8705 17.4134 40.6691 18.7895 40.6691C19.416 40.6691 19.924 40.1241 19.924 39.4517C19.924 38.7794 19.4161 38.2344 18.7895 38.2344C16.1624 38.2344 14.0251 40.528 14.0251 43.3471C14.0251 46.1662 16.1625 48.4598 18.7895 48.4598C21.4165 48.4598 23.5539 46.1662 23.5539 43.3471C23.5541 42.6749 23.0461 42.1299 22.4196 42.1299Z" fill="white"/>
<path d="M58.6862 0H4.71024C2.13897 0 0.046875 1.71101 0.046875 3.81425V58.3499C0.046875 60.4531 2.13879 62.1641 4.71024 62.1641H31.6983C32.5202 62.1641 33.1867 61.6191 33.1867 60.9468C33.1867 60.2745 32.5204 59.7294 31.6983 59.7294H4.71024C3.78013 59.7294 3.02342 59.1105 3.02342 58.3497V3.81425C3.02342 3.0535 3.78013 2.43457 4.71024 2.43457H58.6862C59.6163 2.43457 60.373 3.0535 60.373 3.81425V44.067C60.373 44.7392 61.0393 45.2843 61.8614 45.2843C62.6832 45.2843 63.3497 44.7393 63.3497 44.067V3.81425C63.3495 1.71101 61.2576 0 58.6862 0Z" fill="white"/>
<path d="M70.5053 49.3647C69.4509 49.2519 68.3972 49.5726 67.5631 50.2521C66.8988 49.0559 65.7659 48.2072 64.4552 48.0663C63.4006 47.9536 62.3469 48.2743 61.5131 48.9537C60.8487 47.7574 59.7158 46.9088 58.4051 46.7679C57.5999 46.6816 56.7959 46.848 56.0894 47.2339V31.7315C56.0894 30.4728 55.5905 29.2662 54.7201 28.4212C53.8506 27.5769 52.6788 27.1648 51.505 27.2909C49.4109 27.5159 47.7706 29.5478 47.7706 31.9167V47.4583L44.436 51.0367C42.6639 52.9383 41.9486 55.6363 42.5227 58.2542L45.0543 69.8002C46.0801 74.4788 49.9246 77.7462 54.4034 77.7462H64.635C69.9309 77.7462 74.2395 73.1228 74.2395 67.4396V53.9909C74.2396 51.6217 72.5993 49.5898 70.5053 49.3647ZM71.9708 67.4393C71.9708 71.7798 68.68 75.3112 64.6352 75.3112H54.4035C50.9827 75.3112 48.0463 72.8156 47.2628 69.2422L44.7311 57.6961C44.3383 55.9051 44.8278 54.059 46.0402 52.7579L47.7706 50.901V55.1038C47.7706 55.776 48.2785 56.3212 48.905 56.3212C49.5316 56.3212 50.0395 55.7762 50.0395 55.1038V31.9166C50.0395 30.783 50.7825 29.8152 51.7313 29.7134C52.2762 29.6547 52.7974 29.8372 53.1981 30.2265C53.5939 30.6109 53.8208 31.1595 53.8208 31.7316V53.1564C53.8208 53.8286 54.3287 54.3737 54.9553 54.3737C55.5818 54.3737 56.0897 53.8288 56.0897 53.1564V51.2086C56.0897 50.6365 56.3165 50.0878 56.7124 49.7035C57.1135 49.3142 57.6343 49.1315 58.1793 49.1904C59.1279 49.2923 59.8711 50.2602 59.8711 51.3937V54.4545C59.8711 55.1267 60.3789 55.6719 61.0055 55.6719C61.6319 55.6719 62.1399 55.1269 62.1399 54.4545V52.5068C62.1399 51.9346 62.3667 51.386 62.7627 51.0017C63.1637 50.6123 63.6847 50.4298 64.2295 50.4886C65.1781 50.5905 65.9213 51.5583 65.9213 52.6919V55.7528C65.9213 56.425 66.4291 56.9702 67.0557 56.9702C67.6821 56.9702 68.1901 56.4252 68.1901 55.7528V53.8051C68.1901 53.2329 68.417 52.6843 68.8129 52.3C69.2139 51.9108 69.7345 51.7279 70.2797 51.787C71.2283 51.8888 71.9715 52.8566 71.9715 53.9902V67.4393H71.9708Z" fill="white"/>
</svg>
