<svg width="94" height="60" viewBox="0 0 94 60" fill="none" xmlns="http://www.w3.org/2000/svg">
<path d="M86.7354 25.4361L84.3986 15.6109C85.0375 15.4683 85.5169 14.8725 85.5169 14.1587V12.5746C85.5169 9.13506 82.8548 6.33693 79.5829 6.33693H68.9395V3.06935C68.9395 1.37684 67.6297 0 66.0195 0H11.7657C10.1555 0 8.84572 1.37684 8.84572 3.06935V30.0003C8.84572 30.8204 9.47824 31.4855 10.2586 31.4855C11.0388 31.4855 11.6715 30.8206 11.6715 30.0003V3.06935C11.6715 3.0147 11.7137 2.97042 11.7657 2.97042H66.0194C66.0713 2.97042 66.1135 3.0147 66.1135 3.06935V30.0007C66.1135 30.8208 66.746 31.4859 67.5264 31.4859C68.3066 31.4859 68.9393 30.821 68.9393 30.0007V28.317H85.6061C85.6075 28.317 85.6085 28.3174 85.6098 28.3174C85.6112 28.3174 85.6124 28.3172 85.6136 28.3172C87.6645 28.3187 89.406 29.7337 90.0041 31.6835H85.6108C84.8306 31.6835 84.1979 32.3484 84.1979 33.1687V36.337C84.1979 38.903 86.1838 40.9905 88.6249 40.9905H90.2262V47.5251H86.5318C85.3183 43.8416 81.9872 41.1884 78.0755 41.1884C74.1639 41.1884 70.8326 43.8416 69.6192 47.5251H68.9389V36.3368C68.9389 35.5167 68.3064 34.8516 67.526 34.8516C66.7458 34.8516 66.1131 35.5165 66.1131 36.3368V47.5247H36.7996C35.586 43.8413 32.2549 41.188 28.3433 41.188C24.4316 41.188 21.1003 43.8413 19.8869 47.5247H11.7657C11.7137 47.5247 11.6715 47.4805 11.6715 47.4258V44.1584H17.7939C18.5741 44.1584 19.2068 43.4935 19.2068 42.6732C19.2068 41.8529 18.5743 41.188 17.7939 41.188H4.23054C3.45033 41.188 2.81763 41.8529 2.81763 42.6732C2.81763 43.4935 3.45015 44.1584 4.23054 44.1584H8.84589V47.4258C8.84589 49.1183 10.1557 50.4952 11.7658 50.4952H19.3977C19.3973 50.5281 19.3952 50.5609 19.3952 50.5941C19.3952 55.7806 23.4094 60 28.3433 60C33.2771 60 37.2913 55.7806 37.2913 50.5941C37.2913 50.5607 37.2892 50.5281 37.2888 50.4952H69.13C69.1296 50.5281 69.1275 50.5609 69.1275 50.5941C69.1275 55.7806 73.1417 60 78.0755 60C83.0094 60 87.0236 55.7806 87.0236 50.5941C87.0236 50.5607 87.0214 50.5281 87.0211 50.4952H91.6391C92.4193 50.4952 93.052 49.8303 93.052 49.01V33.1684C93.0522 29.2572 90.3069 26.0076 86.7354 25.4361ZM68.9395 9.30717H79.5829C81.2968 9.30717 82.6912 10.7729 82.6912 12.5746V12.6735H68.9395V9.30717ZM68.9395 25.3468V15.6437H81.4939L83.8015 25.3468H68.9395ZM28.3433 57.0301C24.9674 57.0301 22.2209 54.1433 22.2209 50.5945C22.2209 47.0457 24.9674 44.1588 28.3433 44.1588C31.7191 44.1588 34.4656 47.0457 34.4656 50.5945C34.4656 54.1433 31.7191 57.0301 28.3433 57.0301ZM78.0759 57.0301C74.7 57.0301 71.9535 54.1433 71.9535 50.5945C71.9535 47.0457 74.7 44.1588 78.0759 44.1588C81.4518 44.1588 84.1983 47.0457 84.1983 50.5945C84.1983 54.1433 81.4518 57.0301 78.0759 57.0301ZM90.2265 38.0201H88.6252C87.7423 38.0201 87.0239 37.265 87.0239 36.3368V34.6536H90.2264V38.0201H90.2265Z" fill="white"/>
<path d="M28.3842 48C27.002 48 25.8777 49.1214 25.8777 50.5C25.8777 51.8786 27.002 53 28.3842 53C29.7663 53 30.8907 51.8786 30.8907 50.5C30.8907 49.1214 29.7663 48 28.3842 48Z" fill="white"/>
<path d="M78.1166 48C76.7345 48 75.6101 49.1214 75.6101 50.5C75.6101 51.8786 76.7345 53 78.1166 53C79.4988 53 80.6231 51.8786 80.6231 50.5C80.6231 49.1214 79.4988 48 78.1166 48Z" fill="white"/>
<path d="M35.3553 37H14.2567C13.4764 37 12.8438 37.6788 12.8438 38.5162C12.8438 39.3536 13.4763 40.0324 14.2567 40.0324H35.3553C36.1356 40.0324 36.7683 39.3536 36.7683 38.5162C36.7683 37.6788 36.1357 37 35.3553 37Z" fill="white"/>
<path d="M20.31 33H2.22541C1.4452 33 0.8125 33.6788 0.8125 34.5162C0.8125 35.3536 1.44502 36.0324 2.22541 36.0324H20.31C21.0903 36.0324 21.723 35.3536 21.723 34.5162C21.723 33.6788 21.0903 33 20.31 33Z" fill="white"/>
<path d="M51.9481 14.9986C51.3964 14.4067 50.5017 14.4067 49.95 14.9988L37.3856 28.4817L30.8494 21.4676C30.2976 20.8755 29.403 20.8755 28.8514 21.4676C28.2995 22.0598 28.2995 23.0196 28.8514 23.6117L36.3866 31.6979C36.6625 31.9941 37.0241 32.142 37.3856 32.142C37.747 32.142 38.1089 31.9941 38.3845 31.6979L51.9479 17.1429C52.4997 16.5506 52.4997 15.5908 51.9481 14.9986Z" fill="white"/>
</svg>
