<svg width="68" height="66" viewBox="0 0 68 66" fill="none" xmlns="http://www.w3.org/2000/svg">
<path d="M66.5582 36.6958C66.1829 35.362 65.8295 34.1012 65.8295 32.9508C65.8295 31.8004 66.1829 30.5397 66.5582 29.2059C67.1554 27.0827 67.7716 24.8865 67.0342 22.7518C66.2691 20.5312 64.362 19.08 62.5178 17.6788C61.4124 16.8379 60.3684 16.0442 59.6909 15.1703C59.0017 14.2792 58.5139 13.0901 58 11.8308C57.1516 9.76204 56.2755 7.62167 54.3129 6.27785C52.3826 4.95408 49.9732 4.82658 47.6471 4.7048C46.1957 4.62887 44.8231 4.55581 43.6739 4.20481C42.5992 3.87674 41.4865 3.19623 40.3096 2.47561C38.4157 1.31517 36.2678 0 33.784 0C31.3002 0 29.1522 1.31517 27.2583 2.47704C26.0814 3.19766 24.9717 3.8796 23.8955 4.20624C22.7449 4.55724 21.3723 4.63031 19.9208 4.70624C17.5933 4.82944 15.1869 4.95552 13.255 6.27928C11.2925 7.6231 10.4164 9.76204 9.56802 11.8308C9.05111 13.0901 8.5634 14.2806 7.87418 15.1717C7.19665 16.0485 6.15261 16.8422 5.04724 17.6846C3.20446 19.0871 1.30036 20.5355 0.535215 22.7533C-0.202186 24.8893 0.414018 27.0841 1.00978 29.2088C1.38505 30.5425 1.73842 31.8018 1.73842 32.9523C1.73842 34.1027 1.38505 35.3634 1.00978 36.6972C0.414018 38.8204 -0.202186 41.0166 0.535215 43.1541C1.30036 45.3718 3.20592 46.8231 5.0487 48.2242C6.15407 49.0638 7.19811 49.8589 7.87418 50.7328C8.56486 51.6239 9.05257 52.813 9.56802 54.0737C10.4164 56.1425 11.294 58.2828 13.2579 59.6295C15.1869 60.9504 17.5947 61.0765 19.9208 61.1983C21.3723 61.2742 22.7449 61.3473 23.894 61.6983C24.9688 62.0263 26.08 62.7068 27.2554 63.426C29.1508 64.585 31.2987 65.9016 33.784 65.9016C36.2692 65.9016 38.4187 64.585 40.3155 63.4246C41.4909 62.7054 42.6007 62.0249 43.6768 61.6968C44.826 61.3458 46.1986 61.2728 47.6501 61.1968C49.9776 61.0751 52.384 60.949 54.3129 59.6281C56.2798 58.2814 57.156 56.1382 58.0043 54.068C58.5198 52.8101 59.006 51.621 59.6923 50.7328C60.3699 49.8589 61.4139 49.0638 62.5193 48.2242C64.3635 46.8217 66.2691 45.3718 67.0357 43.1527C67.7731 41.0152 67.1554 38.8204 66.5582 36.6958ZM64.2684 42.2344C63.7851 43.6355 62.3001 44.7644 60.7289 45.9592C59.5242 46.8761 58.2772 47.8245 57.366 48.9993C56.4417 50.197 55.8577 51.621 55.2926 53.0007C54.5727 54.76 53.8922 56.4204 52.6408 57.2771C51.3938 58.131 49.4999 58.2298 47.4936 58.3344C45.9268 58.4161 44.3045 58.5006 42.8064 58.959C41.3739 59.3989 40.0481 60.2083 38.7675 60.9934C37.0517 62.045 35.4324 63.0364 33.7838 63.0364C32.1352 63.0364 30.5173 62.045 28.8016 60.9934C27.5225 60.2097 26.1981 59.3989 24.7641 58.959C23.266 58.502 21.6437 58.4161 20.0769 58.3344C18.0706 58.2298 16.1752 58.1295 14.9297 57.2771C13.6798 56.4204 12.9978 54.76 12.278 53.0021C11.7129 51.6225 11.1273 50.197 10.2016 48.9993C9.29186 47.8245 8.04484 46.8761 6.83872 45.9578C5.269 44.763 3.78544 43.6355 3.30211 42.2344C2.85091 40.9292 3.32548 39.2416 3.82632 37.4565C4.23518 35.9966 4.65864 34.4895 4.65864 32.9494C4.65864 31.4093 4.23518 29.9036 3.82632 28.4437C3.32402 26.6586 2.85091 24.9724 3.30211 23.6673C3.78544 22.2662 5.26754 21.1387 6.83726 19.9438C8.04338 19.0255 9.29186 18.0757 10.2001 16.8995C11.1288 15.7018 11.7129 14.2749 12.2794 12.8952C12.9978 11.1374 13.6783 9.47838 14.9268 8.62452C16.1738 7.76923 18.0706 7.67038 20.0784 7.56579C21.6437 7.4827 23.266 7.39818 24.7627 6.93973C26.1981 6.50134 27.5239 5.68903 28.806 4.90394C30.5188 3.85668 32.1367 2.86529 33.7838 2.86529C35.4309 2.86529 37.0503 3.85668 38.7645 4.90681C40.0466 5.69333 41.371 6.50421 42.8064 6.9426C44.3031 7.39961 45.9239 7.48413 47.4907 7.56723C49.4985 7.67181 51.3938 7.77353 52.6408 8.62738C53.8908 9.48411 54.5712 11.1431 55.2896 12.8981C55.8562 14.2792 56.4388 15.7046 57.3675 16.9023C58.2772 18.0771 59.5242 19.0255 60.7289 19.9424C62.3001 21.1387 63.7851 22.2676 64.2684 23.6716C64.7196 24.9739 64.2436 26.6601 63.7427 28.4452C63.3324 29.905 62.909 31.4122 62.909 32.9523C62.909 34.4923 63.331 35.9995 63.7427 37.4579C64.2452 39.243 64.7196 40.9292 64.2684 42.2344Z" fill="white"/>
<path d="M33.7865 10.0078C20.87 10.0078 10.3994 20.2813 10.3994 32.9536C10.3994 45.6263 20.87 55.8993 33.7865 55.8993C46.7025 55.8993 57.1737 45.6263 57.1737 32.9536C57.1595 20.2867 46.6971 10.0217 33.7865 10.0078ZM33.7865 53.714C22.1 53.714 12.6268 44.4195 12.6268 32.9536C12.6268 21.4882 22.1 12.1931 33.7865 12.1931C45.4725 12.1931 54.9463 21.4882 54.9463 32.9536C54.9333 44.4142 45.4671 53.7017 33.7865 53.714Z" fill="white"/>
<path d="M22.9756 42.0154L43.0217 22.3477L44.597 23.8927L24.5504 43.5611L22.9756 42.0154Z" fill="white"/>
<path d="M40.4684 35.1387C38.0077 35.1387 36.0137 37.0956 36.0137 39.5093C36.0137 41.9235 38.0077 43.8799 40.4684 43.8799C42.9285 43.8799 44.9231 41.9235 44.9231 39.5093C44.9231 37.0956 42.9285 35.1387 40.4684 35.1387ZM40.4684 41.6946C39.2383 41.6946 38.241 40.7161 38.241 39.5093C38.241 38.3025 39.2383 37.324 40.4684 37.324C41.6984 37.324 42.6957 38.3025 42.6957 39.5093C42.6957 40.7161 41.6984 41.6946 40.4684 41.6946Z" fill="white"/>
<path d="M27.1044 30.7686C29.5645 30.7686 31.5591 28.8121 31.5591 26.3979C31.5591 23.9843 29.5645 22.0273 27.1044 22.0273C24.6437 22.0273 22.6497 23.9843 22.6497 26.3979C22.6497 28.8121 24.6437 30.7686 27.1044 30.7686ZM27.1044 24.2126C28.3344 24.2126 29.3317 25.1911 29.3317 26.3979C29.3317 27.6048 28.3344 28.5832 27.1044 28.5832C25.8743 28.5832 24.877 27.6048 24.877 26.3979C24.877 25.1911 25.8743 24.2126 27.1044 24.2126Z" fill="white"/>
</svg>
