<svg width="65" height="64" viewBox="0 0 65 64" fill="none" xmlns="http://www.w3.org/2000/svg">
<path d="M64.0712 35.1929C63.7127 33.9138 63.3752 32.7047 63.3752 31.6014C63.3752 30.4981 63.7127 29.289 64.0712 28.0098C64.6417 25.9736 65.2303 23.8673 64.5259 21.8201C63.795 19.6904 61.9734 18.2986 60.2118 16.9548C59.1559 16.1483 58.1586 15.3871 57.5114 14.549C56.853 13.6944 56.3872 12.554 55.8962 11.3463C55.0858 9.36225 54.2489 7.30954 52.3743 6.02075C50.5303 4.7512 48.2289 4.62891 46.0069 4.51213C44.6205 4.43931 43.3093 4.36923 42.2116 4.03261C41.185 3.71797 40.1222 3.06533 38.998 2.37423C37.1889 1.26131 35.1371 0 32.7645 0C30.3919 0 28.3401 1.26131 26.5311 2.3756C25.4068 3.06671 24.3468 3.72072 23.3188 4.03399C22.2197 4.37061 20.9086 4.44068 19.5221 4.5135C17.2988 4.63166 15.0001 4.75257 13.1548 6.02212C11.2801 7.31091 10.4432 9.36225 9.63284 11.3463C9.13907 12.554 8.6732 13.6958 8.01485 14.5504C7.36765 15.3912 6.37036 16.1524 5.31448 16.9603C3.55422 18.3054 1.73538 19.6945 1.00449 21.8214C0.300107 23.87 0.888721 25.975 1.45781 28.0126C1.81628 29.2917 2.15382 30.4995 2.15382 31.6028C2.15382 32.7061 1.81628 33.9151 1.45781 35.1943C0.888721 37.2305 0.300107 39.3368 1.00449 41.3868C1.73538 43.5137 3.55561 44.9056 5.31588 46.2493C6.37175 47.0545 7.36905 47.817 8.01485 48.6551C8.6746 49.5097 9.14047 50.6501 9.63284 51.8592C10.4432 53.8433 11.2815 55.896 13.1575 57.1875C15.0001 58.4543 17.3002 58.5752 19.5221 58.692C20.9086 58.7648 22.2197 58.8349 23.3174 59.1715C24.344 59.4862 25.4054 60.1388 26.5283 60.8285C28.3388 61.9401 30.3905 63.2028 32.7645 63.2028C35.1385 63.2028 37.1917 61.9401 39.0035 60.8272C40.1264 60.1374 41.1864 59.4848 42.2144 59.1701C43.3121 58.8335 44.6233 58.7635 46.0097 58.6906C48.2331 58.5738 50.5317 58.4529 52.3743 57.1861C54.2531 55.8946 55.09 53.8391 55.9004 51.8537C56.3927 50.6474 56.8572 49.507 57.5128 48.6551C58.16 47.817 59.1573 47.0545 60.2132 46.2493C61.9748 44.9042 63.795 43.5137 64.5273 41.3854C65.2317 39.3355 64.6417 37.2305 64.0712 35.1929ZM61.884 40.5047C61.4223 41.8485 60.0038 42.9312 58.5029 44.0771C57.3522 44.9564 56.161 45.866 55.2907 46.9926C54.4077 48.1413 53.8498 49.507 53.31 50.8301C52.6224 52.5174 51.9724 54.1098 50.777 54.9314C49.5858 55.7503 47.7768 55.8451 45.8603 55.9454C44.3636 56.0237 42.814 56.1048 41.3829 56.5445C40.0146 56.9663 38.7481 57.7426 37.5249 58.4955C35.8859 59.504 34.3391 60.4548 32.7643 60.4548C31.1896 60.4548 29.6441 59.504 28.0052 58.4955C26.7834 57.744 25.5183 56.9663 24.1485 56.5445C22.7175 56.1062 21.1678 56.0237 19.6712 55.9454C17.7547 55.8451 15.9442 55.749 14.7544 54.9314C13.5605 54.1098 12.9091 52.5174 12.2214 50.8315C11.6817 49.5084 11.1223 48.1413 10.238 46.9926C9.36904 45.866 8.17787 44.9564 7.02575 44.0757C5.52632 42.9298 4.10918 41.8485 3.6475 40.5047C3.2165 39.253 3.66981 37.6345 4.14824 35.9225C4.53879 34.5224 4.94328 33.077 4.94328 31.6C4.94328 30.123 4.53879 28.6789 4.14824 27.2789C3.66842 25.5669 3.2165 23.9497 3.6475 22.698C4.10918 21.3543 5.52492 20.273 7.02435 19.1271C8.17647 18.2464 9.36904 17.3354 10.2366 16.2074C11.1237 15.0587 11.6817 13.6903 12.2228 12.3671C12.9091 10.6813 13.5591 9.09021 14.7516 8.27132C15.9428 7.45106 17.7547 7.35625 19.6726 7.25595C21.1678 7.17626 22.7175 7.0952 24.1471 6.65553C25.5183 6.23509 26.7847 5.45605 28.0094 4.70311C29.6455 3.69874 31.191 2.74795 32.7643 2.74795C34.3377 2.74795 35.8845 3.69874 37.5221 4.70586C38.7467 5.46017 40.0118 6.23784 41.3829 6.65827C42.8126 7.09657 44.3609 7.17764 45.8575 7.25733C47.7754 7.35763 49.5858 7.45518 50.777 8.27407C51.971 9.0957 52.621 10.6868 53.3072 12.3699C53.8484 13.6944 54.4049 15.0615 55.2921 16.2101C56.161 17.3368 57.3522 18.2464 58.5029 19.1257C60.0038 20.273 61.4223 21.3557 61.884 22.7022C62.315 23.9511 61.8603 25.5683 61.3818 27.2802C60.9899 28.6803 60.5854 30.1257 60.5854 31.6028C60.5854 33.0798 60.9885 34.5252 61.3818 35.9239C61.8618 37.6359 62.315 39.253 61.884 40.5047Z" fill="white"/>
<path d="M32.7646 10.9912C21.228 10.9912 11.8423 20.2367 11.8423 31.6008C11.8423 42.965 21.228 52.2104 32.7646 52.2104C44.3011 52.2104 53.6869 42.965 53.6869 31.6008C53.6869 20.2367 44.3011 10.9912 32.7646 10.9912ZM32.7646 49.4625C22.7665 49.4625 14.6319 41.4495 14.6319 31.6008C14.6319 21.7522 22.7665 13.7392 32.7646 13.7392C37.9212 13.7392 42.5702 15.8812 45.8759 19.2969L32.5832 37.7233L25.3818 30.6294C24.8364 30.0922 23.9549 30.0922 23.4095 30.6294C22.8641 31.1666 22.8641 32.035 23.4095 32.5722L31.7784 40.8161C32.0407 41.0757 32.3963 41.2186 32.7646 41.2186C32.8022 41.2186 32.8427 41.2173 32.8817 41.2131C33.2904 41.1802 33.6642 40.9699 33.9013 40.6402L47.7059 21.5035C49.7144 24.3778 50.8972 27.854 50.8972 31.6008C50.8972 41.4495 42.7626 49.4625 32.7646 49.4625Z" fill="white"/>
</svg>
