<?xml version="1.0" encoding="utf-8"?><svg viewBox="0 0 191 43" xmlns="http://www.w3.org/2000/svg" xmlns:xlink="http://www.w3.org/1999/xlink"><style>:root>svg{display:none}:root>svg:target{display:block}</style><svg viewBox="0 0 16 10" id="arrow-bottom" xmlns="http://www.w3.org/2000/svg"><path d="M7.113 9.23L.325 2.009a1.23 1.23 0 010-1.664 1.06 1.06 0 011.563 0l6.007 6.392L13.902.345a1.06 1.06 0 011.563 0 1.23 1.23 0 010 1.663L8.677 9.231c-.216.23-.5.344-.782.344a1.07 1.07 0 01-.782-.344z"/></svg><svg viewBox="0 0 17 8" id="arrow-spoller" xmlns="http://www.w3.org/2000/svg"><path d="M8.968 1.108L15.984 6.5c.447.343.447.899 0 1.242-.446.343-1.17.343-1.616 0L8.16 2.97 1.95 7.743c-.445.343-1.169.343-1.615 0-.447-.343-.447-.9 0-1.242l7.017-5.393A1.33 1.33 0 018.16.85c.292 0 .584.085.808.257z"/></svg><svg viewBox="0 0 32 34" id="cart" xmlns="http://www.w3.org/2000/svg"><path d="M7.221 7.769h22.644a1 1 0 01.969 1.248l-1.907 7.435a3 3 0 01-2.906 2.255h-16.9M.074 1.5h4.67a2 2 0 011.974 1.684l3.028 18.973a2 2 0 001.975 1.685h16.63m-12.467 6.424c0 1.3-1.012 2.31-2.207 2.31-1.195 0-2.207-1.01-2.207-2.31s1.012-2.31 2.207-2.31c1.195 0 2.207 1.01 2.207 2.31zm13.012 0c0 1.3-1.013 2.31-2.207 2.31-1.195 0-2.208-1.01-2.208-2.31s1.013-2.31 2.207-2.31c1.195 0 2.208 1.01 2.208 2.31z"/></svg><svg viewBox="0 0 27 25" id="compare" xmlns="http://www.w3.org/2000/svg"><path d="M26.195 12.527l-.022.012-3.74-9.284h1.707a.553.553 0 100-1.105H13.713V.553a.553.553 0 00-1.108 0v1.591H2.183a.553.553 0 100 1.105h1.779L.216 12.528a.552.552 0 00-.044.204 4.6 4.6 0 004.607 4.595 4.6 4.6 0 004.607-4.595.552.552 0 00-.045-.204l-3.74-9.284h7.004V20.33c-2.643.2-4.71 1.802-4.71 3.741 0 .306.248.553.554.553h9.419a.553.553 0 00.554-.553c0-1.94-2.067-3.542-4.71-3.74V3.243h7.076l-3.718 9.284a.55.55 0 00-.044.204 4.6 4.6 0 004.607 4.595 4.6 4.6 0 004.607-4.595.552.552 0 00-.045-.204zM4.776 16.23a3.499 3.499 0 01-3.452-2.934h6.881a3.499 3.499 0 01-3.429 2.934zm3.23-4.04H1.557l3.23-8.018 3.219 8.018zm9.208 11.329H9.098c.41-1.188 2.1-2.106 4.055-2.106 1.956 0 3.651.918 4.061 2.106zm4.394-19.341l3.219 8.012h-6.45l3.23-8.012zm0 12.052v.005a3.499 3.499 0 01-3.43-2.94h6.881a3.499 3.499 0 01-3.451 2.935z"/></svg><svg viewBox="0 0 28 27" id="favorite" xmlns="http://www.w3.org/2000/svg"><path d="M20.1 0A7.917 7.917 0 0014 2.872 7.917 7.917 0 007.9 0C3.544 0 0 3.525 0 7.857c0 3.392 2.034 7.316 6.045 11.663 3.087 3.345 6.445 5.934 7.4 6.649l.555.414.554-.414c.956-.715 4.314-3.304 7.4-6.649C25.967 15.174 28 11.25 28 7.857 28 3.525 24.456 0 20.1 0zm.495 18.278c-2.54 2.751-5.27 4.975-6.595 6-1.325-1.025-4.056-3.249-6.595-6-3.637-3.94-5.559-7.544-5.559-10.42 0-3.32 2.716-6.022 6.054-6.022a6.063 6.063 0 015.293 3.108L14 6.392l.807-1.448A6.063 6.063 0 0120.1 1.836c3.338 0 6.054 2.701 6.054 6.021 0 2.877-1.922 6.48-5.56 10.421z"/></svg><svg viewBox="0 0 16 16" id="footer-clock" xmlns="http://www.w3.org/2000/svg"><circle cx="8" cy="8" r="7.5"/><rect width="1" height="5" rx=".5" transform="matrix(-1 0 0 1 8 4)"/><rect width="1" height="4" rx=".5" transform="matrix(0 1 1 0 7 8)"/></svg><svg viewBox="0 0 18 13" id="footer-email" xmlns="http://www.w3.org/2000/svg"><path d="M1 1l7.4 5.55a1 1 0 001.2 0L17 1"/><rect x=".5" y=".5" width="17" height="12" rx="1.5"/></svg><svg viewBox="0 0 12 17" id="footer-location" xmlns="http://www.w3.org/2000/svg"><path d="M5.955 0C2.914 0 .44 2.6.44 5.797c0 1.08.285 2.134.823 3.049l4.378 7.416a.455.455 0 00.39.228h.004a.456.456 0 00.39-.234l4.266-7.488a6.017 6.017 0 00.778-2.97C11.469 2.6 8.995 0 5.955 0zm3.947 8.272l-3.878 6.807-3.98-6.742a5.01 5.01 0 01-.69-2.54C1.353 3.133 3.42.96 5.953.96c2.534 0 4.599 2.173 4.599 4.837 0 .874-.227 1.73-.65 2.475z"/><path d="M5.955 2.443A3.062 3.062 0 002.89 5.497a3.055 3.055 0 003.064 3.054c1.732 0 3.063-1.4 3.063-3.054a3.062 3.062 0 00-3.063-3.054zm0 5.097a2.047 2.047 0 01-2.05-2.043c0-1.122.923-2.042 2.05-2.042A2.05 2.05 0 018 5.496 2.044 2.044 0 015.955 7.54z"/></svg><svg viewBox="0 0 16 16" id="footer-phone" xmlns="http://www.w3.org/2000/svg"><path d="M15.087 11.68l-1.87-1.969a1.277 1.277 0 00-1.869 0l-.85.895a.967.967 0 01-1.416 0L5.398 6.724a1.094 1.094 0 010-1.491l.85-.895c.513-.54.52-1.42 0-1.969L4.378.407A1.277 1.277 0 002.51.406l-.681.71c-1.859 1.958-1.859 5.143 0 7.1l5.836 6.148c1.863 1.962 4.88 1.962 6.742 0l.68-.716a1.446 1.446 0 000-1.968zM3.132 1.063a.426.426 0 01.624 0l1.869 1.963a.481.481 0 010 .656l-.312.328-2.491-2.623.31-.324zM8.29 13.708L2.452 7.559C1.014 6.045.935 3.668 2.21 2.054l2.484 2.615a2.057 2.057 0 00.082 2.711l3.683 3.882a1.813 1.813 0 002.575.086l2.484 2.616c-1.527 1.34-3.78 1.269-5.228-.256zm6.175-.716l-.312.328-2.492-2.625.311-.328a.426.426 0 01.623 0l1.87 1.969a.482.482 0 010 .656z"/></svg><svg viewBox="0 0 18 25" id="location" xmlns="http://www.w3.org/2000/svg"><path d="M9.475 0C4.776 0 .953 3.85.953 8.584c0 1.6.44 3.16 1.272 4.514L8.99 24.08a.71.71 0 00.604.338h.005a.71.71 0 00.604-.348l6.592-11.087a8.62 8.62 0 001.202-4.398C17.997 3.851 14.174 0 9.475 0zm6.101 12.248l-5.993 10.08-6.15-9.984a7.183 7.183 0 01-1.069-3.76c0-3.944 3.195-7.163 7.111-7.163s7.107 3.219 7.107 7.163c0 1.294-.351 2.56-1.006 3.664z"/><path d="M9.472 3.617c-2.611 0-4.735 2.029-4.735 4.522 0 2.477 2.09 4.522 4.735 4.522 2.678 0 4.734-2.072 4.734-4.522 0-2.493-2.124-4.522-4.734-4.522zm0 7.546c-1.75 0-3.167-1.358-3.167-3.024 0-1.662 1.426-3.025 3.167-3.025 1.74 0 3.161 1.363 3.161 3.025 0 1.642-1.384 3.024-3.161 3.024z"/></svg><svg viewBox="0 0 191 43" id="logo" xmlns="http://www.w3.org/2000/svg"><path fill-rule="evenodd" clip-rule="evenodd" d="M96.612 38.354s1.13-.546 3.11-1.28c1.021.486 3.257 1.5 5.423 2.124 2.93.844 4.884.715 7.62.715 2.735 0 6.643-.455 6.643-.455s-.586-2.144-.652-3.703c-.064-1.559-.064-1.819-.064-1.819s-.587 2.21-.457 3.378c.131 1.17.131 1.56.131 1.56s-5.145.52-8.793.13c-3.647-.39-5.861-.78-7.424-1.3a63.373 63.373 0 00-2.247-.697 63.36 63.36 0 0112.276-3.135c9.118-1.365 7.295-.91 7.295-.91s.195-.39 1.367-.52c1.173-.13 13.156-.714 16.869-.454 3.712.26 13.937.78 15.435 1.754 1.498.974 2.084 1.948 1.628 4.352-.455 2.403-1.367 4.742-2.214 4.222-.847-.52-3.712-2.728-6.447-3.118-2.736-.39-5.732-.325-6.969 0-1.238.325-3.322 1.624-4.299 1.3-.977-.325-2.931-2.144-4.494-1.495-1.563.65-1.628.845-2.344 1.754-.717.91-1.694 1.95-2.475.975-.782-.975-2.215-1.43-3.452-1.495-1.238-.064-2.345.325-2.67.65-.326.325-.782.974-.782.974s-2.019-.519-4.364-.26c-2.344.26-6.382.456-9.117-.064-2.736-.52-8.532-3.183-8.532-3.183zm24.619.78s2.606-.456 3.583.259c.976.715 1.172 1.3 2.93-.13 1.759-1.43 2.866-2.469 4.82-1.43 1.954 1.04 2.866 1.69 4.754.715 1.889-.974 5.992-2.013 9.444-.584 3.452 1.429 6.122 3.703 6.643 2.273.521-1.429.782-2.988-1.889-3.572-2.67-.585-6.643-1.235-10.29-.65-3.647.585-4.298 2.273-5.796 1.819-1.499-.455-3.127-1.819-4.95-1.105-1.824.715-3.387 2.924-4.885 2.21-1.498-.715-2.54-1.365-3.452-.91-.912.454-.912 1.104-.912 1.104z"/><path d="M1.97.343v9.66h.447c.034-.554.12-1.114.264-1.673.137-.565.314-1.107.537-1.627.218-.514.47-.982.756-1.405.28-.416.59-.753.916-1.016.24-.2.55-.388.933-.57a6.244 6.244 0 011.374-.446c.538-.12 1.15-.177 1.849-.183h7.28L1.01 24.116l.069.206H23.23v-11.1h-.447a22.333 22.333 0 01-.19 1.914 15.438 15.438 0 01-.4 1.884 9.217 9.217 0 01-.675 1.701 5.33 5.33 0 01-1.002 1.353c-.498.463-1.024.8-1.574 1.017a6.314 6.314 0 01-1.66.41c-.55.063-1.076.086-1.574.08H8.153L23.403.548 23.23.343H1.97zm28.164 20.142c.006.28-.006.565-.04.862a3.05 3.05 0 01-.229.88 2.25 2.25 0 01-.59.793 2.71 2.71 0 01-.87.486 4.89 4.89 0 01-.996.24c-.343.045-.67.079-.984.097l-.584.034v.445h24.11V13.908h-.446l-.103 1.062a19.595 19.595 0 01-.235 1.696 7.076 7.076 0 01-.526 1.644c-.241.537-.596 1.028-1.06 1.49a4.887 4.887 0 01-.63.525 5.61 5.61 0 01-1.052.583c-.43.194-.945.354-1.546.48-.601.125-1.3.188-2.095.193h-7.865V4.18c-.006-.2.005-.45.04-.748a3.63 3.63 0 01.229-.925 2.4 2.4 0 01.59-.862c.246-.217.532-.377.858-.485.332-.114.67-.194 1.02-.24.342-.045.669-.08.972-.097l.584-.034V.343H25.841v.445l.584.034c.303.017.63.052.979.097.343.046.68.126 1.013.24.326.108.612.268.858.485.27.258.47.543.59.863.12.32.2.628.23.924.033.297.045.548.039.748v16.306zM62.624 0l-7.487 18.019a28.15 28.15 0 01-.686 1.501 24.85 24.85 0 01-.538 1.028c-.155.268-.287.486-.39.657a7.737 7.737 0 01-.452.656 5.51 5.51 0 01-.721.77 4.74 4.74 0 01-1.036.698 4.847 4.847 0 01-1.397.445l-.653.103v.445h12.33v-.445l-.858-.069a6.625 6.625 0 01-1.082-.171 4.346 4.346 0 01-1.088-.423 2.546 2.546 0 01-.852-.742 2.38 2.38 0 01-.384-.913 3.735 3.735 0 01-.057-1.08c.028-.364.108-.707.234-1.021l1.306-3.186h8.792l1.546 3.768c.091.211.166.44.234.69.069.258.103.503.109.749-.006.508-.103.913-.298 1.21a1.802 1.802 0 01-.732.674 2.221 2.221 0 01-.561.222 6.11 6.11 0 01-.802.149c-.32.04-.715.074-1.179.108l-.515.035v.445H78.87v-.445l-.55-.034a5.432 5.432 0 01-1.202-.206 5.634 5.634 0 01-1.088-.423 3.694 3.694 0 01-.836-.57c-.2-.2-.395-.463-.578-.783a13.188 13.188 0 01-.63-1.29c-.229-.53-.515-1.21-.852-2.038L65.545 0h-2.92zm4.123 13.874H59.67l3.504-8.427h.068l3.504 8.427zM89.243 3.083h2.541c.2-.006.453.006.756.029s.63.068.984.148c.355.074.71.194 1.065.354.36.166.693.388 1.008.668.286.263.544.611.778 1.05.229.44.436.926.607 1.457.177.536.32 1.079.43 1.627.108.548.177 1.067.211 1.553h.447V.343H76.157v9.626h.447c.034-.486.108-1.005.217-1.553.103-.548.246-1.09.424-1.627a8.796 8.796 0 01.612-1.456c.23-.44.487-.788.773-1.051.315-.28.647-.502 1.007-.668.356-.16.71-.28 1.066-.354.354-.08.68-.125.984-.148.303-.023.555-.035.756-.029h2.541v17.402c.006.2-.005.451-.04.748a3.627 3.627 0 01-.229.925 2.36 2.36 0 01-.59.862 2.552 2.552 0 01-.858.486c-.332.114-.67.188-1.014.24a17.93 17.93 0 01-.978.097l-.584.034v.445h12.845v-.445l-.584-.034c-.303-.024-.63-.052-.973-.098a5.6 5.6 0 01-1.019-.24 2.548 2.548 0 01-.859-.485 2.454 2.454 0 01-.59-.862 3.62 3.62 0 01-.228-.925 5.35 5.35 0 01-.04-.748V3.083zm43.756-2.74h-10.304l-6.422 16.272h-.103L109.747.343H99.031v.445l.584.034c.304.017.63.052.979.097a5.24 5.24 0 011.013.24c.327.108.613.268.859.485.269.258.469.543.59.863.12.32.2.628.229.924.034.297.045.548.039.748V19.8c.006.263-.011.582-.045.96a5.187 5.187 0 01-.24 1.141 2.538 2.538 0 01-.573.983 2.61 2.61 0 01-.847.53c-.338.137-.687.24-1.042.308a6.711 6.711 0 01-.962.12l-.584.035v.445h11.575v-.445l-.584-.034a6.724 6.724 0 01-.962-.12 5.595 5.595 0 01-1.042-.309 2.616 2.616 0 01-.846-.53 2.246 2.246 0 01-.482-.743 4 4 0 01-.257-.88 7.87 7.87 0 01-.103-.833 14.068 14.068 0 01-.017-.628V3.666h.103l8.174 20.656h1.58l8.174-20.656h.103v16.82c.006.2-.005.45-.04.747a3.387 3.387 0 01-.229.925 2.36 2.36 0 01-.59.862 2.552 2.552 0 01-.858.486c-.332.114-.67.188-1.013.24-.35.045-.676.073-.979.097l-.584.034v.445h12.845v-.445l-.584-.034a17.295 17.295 0 01-.973-.098 5.428 5.428 0 01-1.013-.24 2.529 2.529 0 01-.865-.485 2.45 2.45 0 01-.589-.862c-.12-.32-.2-.628-.229-.925a6.45 6.45 0 01-.04-.748V4.18c-.006-.2.012-.45.04-.748.029-.296.109-.605.229-.925.126-.32.32-.604.589-.862.247-.217.533-.377.865-.485a5.039 5.039 0 011.013-.24c.344-.045.67-.08.973-.097l.584-.034V.343zM145.604 0l-7.488 18.019a26.558 26.558 0 01-1.224 2.529c-.155.268-.287.486-.389.657a7.738 7.738 0 01-.453.656 5.507 5.507 0 01-.721.77c-.286.258-.63.492-1.036.698a4.846 4.846 0 01-1.397.445l-.653.103v.445h12.331v-.445l-.859-.069a6.627 6.627 0 01-1.082-.171 4.36 4.36 0 01-1.088-.423 2.545 2.545 0 01-.852-.742 2.372 2.372 0 01-.384-.913 3.725 3.725 0 01-.057-1.08c.028-.364.108-.707.235-1.021l1.305-3.186h8.792l1.546 3.768c.091.211.166.44.234.69.069.258.103.503.109.749-.006.508-.103.913-.298 1.21a1.803 1.803 0 01-.732.674 2.225 2.225 0 01-.561.222 6.123 6.123 0 01-.802.149c-.32.04-.715.074-1.179.108l-.515.035v.445h13.464v-.445l-.55-.034a5.417 5.417 0 01-1.202-.206 5.64 5.64 0 01-1.088-.423 3.688 3.688 0 01-.836-.57 3.72 3.72 0 01-.578-.783 13.227 13.227 0 01-.63-1.29c-.229-.53-.515-1.21-.852-2.038L148.523 0h-2.919zm4.122 13.874h-7.076l3.504-8.427h.068l3.504 8.427zM160.613.343v.445l.653.137c.418.097.847.28 1.287.542.441.263.865.565 1.271.914.407.348.768.696 1.082 1.045l7.934 8.804-6.697 7.776a7.125 7.125 0 01-.487.52 25.394 25.394 0 01-1.374 1.262c-.217.188-.401.336-.543.444a9.506 9.506 0 01-1.752 1.017c-.624.28-1.242.49-1.855.628v.445h13.498v-.445l-.824-.069c-.647-.057-1.145-.131-1.5-.217a13.072 13.072 0 01-.699-.194 2.998 2.998 0 01-.692-.36 1.74 1.74 0 01-.538-.576c-.137-.234-.206-.526-.212-.88a2.12 2.12 0 01.218-.844 5.2 5.2 0 01.469-.822c.177-.252.326-.452.447-.595l4.361-5.07 4.706 5.173c.246.263.475.537.692.817.218.285.401.57.539.868.137.29.205.588.211.885-.006.336-.097.616-.28.839a1.976 1.976 0 01-.716.53 4.185 4.185 0 01-1.087.344 9.06 9.06 0 01-1.214.137l-.996.034v.445h14.425v-.445a6.253 6.253 0 01-1.231-.292 6.411 6.411 0 01-1.414-.701 11.5 11.5 0 01-1.809-1.57 61.997 61.997 0 01-1.831-2.028l-7.316-8.153 4.637-5.343c.332-.383.681-.789 1.047-1.223.373-.434.767-.856 1.191-1.267a9.193 9.193 0 011.368-1.108 9.223 9.223 0 011.008-.559 9.6 9.6 0 011.167-.457 7.092 7.092 0 011.191-.285l.687-.103V.343h-13.807v.445l.859.069c.63.05 1.145.142 1.545.268.401.126.71.28.927.45.253.19.436.395.539.623.103.234.155.491.149.782a2.878 2.878 0 01-.149.92 3.008 3.008 0 01-.344.708 4.962 4.962 0 01-.4.53l-3.435 4.009-4.877-5.413c-.183-.206-.315-.388-.384-.548a1.034 1.034 0 01-.097-.445c-.006-.263.057-.52.201-.771.137-.252.389-.474.761-.668.177-.08.383-.155.624-.217.24-.063.487-.114.732-.154.246-.034.47-.063.67-.074l.79-.069V.343h-13.326zM.939 35.612a3.82 3.82 0 01.488-.255 3.37 3.37 0 01.565-.187c.2-.049.401-.072.605-.074.285 0 .534.049.745.145.214.097.379.238.498.424.118.188.179.416.18.686a1.175 1.175 0 01-.145.57 1.465 1.465 0 01-.397.46 1.909 1.909 0 01-.595.311 2.39 2.39 0 01-.733.114h-.458v.774h.47c.205 0 .408.014.612.045.205.03.4.08.584.15.182.071.347.165.49.282.143.117.257.262.34.434.083.172.125.378.127.614 0 .291-.07.55-.21.774a1.427 1.427 0 01-.613.532c-.271.127-.599.194-.989.196a3.442 3.442 0 01-.658-.071 4.112 4.112 0 01-.618-.176 3.49 3.49 0 01-.512-.235l-.27.798c.31.18.641.313.996.395a4.659 4.659 0 001.929.039c.28-.055.54-.139.784-.254.245-.115.459-.264.645-.444a1.95 1.95 0 00.437-.648 2.25 2.25 0 00.16-.87 1.97 1.97 0 00-.262-.994 1.897 1.897 0 00-.686-.676 2.505 2.505 0 00-.992-.314v-.022c.31-.073.586-.2.83-.38a1.97 1.97 0 00.585-.67c.143-.264.216-.56.22-.886-.004-.41-.102-.758-.298-1.045a1.867 1.867 0 00-.815-.66 3.004 3.004 0 00-1.216-.23 4.02 4.02 0 00-1.17.165 3.65 3.65 0 00-.923.432l.27.751zm6.375-1.209v3.333c.002.318-.004.647-.02.983a9.637 9.637 0 01-.088.975 4.254 4.254 0 01-.21.853c-.094.254-.22.458-.376.614a1.624 1.624 0 01-.836.422l.13.821c.155-.001.306-.02.457-.056a2.566 2.566 0 00.766-.32c.22-.152.402-.345.549-.578.145-.235.26-.498.347-.791.086-.296.151-.61.192-.941.043-.335.07-.674.082-1.024.014-.35.02-.697.018-1.041V35.26h2.611v7.05h1.035v-7.907H7.314zm10.526 5.42l.847 2.487h1.094l-2.705-7.907h-1.223l-2.706 7.907h1.059l.823-2.486h2.811zm-2.6-.797l.777-2.288c.082-.242.155-.483.218-.725.064-.24.125-.477.182-.706h.023c.058.227.12.462.185.7.065.238.141.485.227.743l.788 2.276h-2.4zm7.21 3.284h1.035v-7.038h2.424v-.869h-5.87v.869h2.411v7.038zm7.54-8.047c-.532.002-1.022.1-1.467.295a3.37 3.37 0 00-1.162.839c-.33.365-.584.802-.765 1.31a5.103 5.103 0 00-.276 1.71c.002.599.088 1.144.26 1.637.173.491.416.915.732 1.271.316.356.692.63 1.127.823.435.192.915.29 1.445.291a3.85 3.85 0 001.16-.174 3.346 3.346 0 001.807-1.354c.226-.335.403-.722.526-1.162.123-.44.186-.932.188-1.474a5.042 5.042 0 00-.253-1.62 3.682 3.682 0 00-.72-1.27 3.176 3.176 0 00-1.126-.827 3.634 3.634 0 00-1.477-.295zm-.036.833a2.203 2.203 0 011.627.679c.202.21.371.453.504.727.134.273.233.567.3.875.065.311.098.626.098.945 0 .452-.057.876-.168 1.271a3.355 3.355 0 01-.492 1.044 2.385 2.385 0 01-.799.71c-.315.17-.676.256-1.082.26a2.322 2.322 0 01-.887-.17 2.276 2.276 0 01-.708-.472 2.755 2.755 0 01-.518-.706 3.633 3.633 0 01-.32-.88 4.816 4.816 0 01-.006-1.993c.067-.321.17-.622.306-.9.136-.276.307-.518.51-.727.204-.208.444-.37.716-.486.272-.117.578-.175.919-.177zm4.07-.693l2.634 5.35a.728.728 0 01.084.245.441.441 0 01-.048.236 4.16 4.16 0 01-.238.448c-.094.156-.204.3-.331.438a1.627 1.627 0 01-.435.332 1.2 1.2 0 01-.55.131c-.087 0-.162-.002-.224-.008a1.102 1.102 0 01-.163-.027l-.094.833c.065.023.143.041.235.053.094.011.207.017.34.017.352 0 .676-.082.97-.244a2.74 2.74 0 00.819-.73c.14-.183.278-.39.41-.625.133-.235.26-.483.384-.747.123-.264.243-.534.357-.808.115-.275.225-.545.331-.81l1.67-4.084h-1.082l-1.247 3.356-.259.772a37.4 37.4 0 01-.223.647h-.035a39.7 39.7 0 00-.565-1.384l-1.576-3.39h-1.164zm12.325 6.84a2.874 2.874 0 01-.478.174 4.661 4.661 0 01-1.203.154c-.642-.003-1.188-.133-1.64-.39a2.562 2.562 0 01-1.034-1.1c-.239-.473-.36-1.036-.36-1.689 0-.52.075-.981.22-1.386.147-.403.358-.745.628-1.023.272-.28.598-.49.977-.635.38-.145.8-.217 1.268-.217.33.002.63.033.899.094.269.06.498.139.688.234l.259-.833c-.09-.048-.221-.1-.392-.154-.17-.053-.38-.1-.627-.137a5.893 5.893 0 00-.863-.06 4.639 4.639 0 00-1.684.299c-.506.198-.94.48-1.307.845a3.757 3.757 0 00-.847 1.31c-.2.508-.3 1.075-.302 1.698.004.652.102 1.226.296 1.727a3.422 3.422 0 002.056 2.025c.473.172.99.26 1.553.26.323-.001.62-.02.89-.054.27-.037.51-.084.714-.14.203-.058.366-.116.49-.181l-.2-.821zm2.999 1.067h1.035v-7.038h2.424v-.869h-5.87v.869h2.411v7.038zm7.54-8.047c-.532.002-1.022.1-1.467.295a3.376 3.376 0 00-1.162.839 3.86 3.86 0 00-.765 1.31 5.1 5.1 0 00-.276 1.71c.002.599.088 1.144.26 1.637.173.491.416.915.732 1.271.316.356.692.63 1.127.823.435.192.915.29 1.444.291a3.85 3.85 0 001.16-.174 3.346 3.346 0 001.808-1.354 3.97 3.97 0 00.526-1.162c.123-.44.186-.932.188-1.474a5.026 5.026 0 00-.253-1.62 3.677 3.677 0 00-.72-1.27 3.18 3.18 0 00-1.126-.827 3.636 3.636 0 00-1.477-.295zm-.036.833a2.201 2.201 0 011.627.679c.202.21.37.453.504.727.134.273.234.567.3.875.064.311.098.626.098.945 0 .452-.057.876-.169 1.271a3.35 3.35 0 01-.492 1.044 2.384 2.384 0 01-.798.71c-.315.17-.676.256-1.082.26a2.32 2.32 0 01-.888-.17 2.277 2.277 0 01-.707-.472 2.766 2.766 0 01-.518-.706 3.633 3.633 0 01-.32-.88 4.528 4.528 0 01-.107-.987c0-.346.033-.682.102-1.005.066-.322.169-.623.305-.9a2.8 2.8 0 01.51-.728 2.2 2.2 0 01.716-.486c.272-.117.578-.175.919-.177zm4.94 7.19c.17.024.39.046.656.065.267.018.579.028.931.03.648 0 1.197-.059 1.647-.18.453-.121.814-.307 1.082-.559a2.061 2.061 0 00.683-1.584 2.02 2.02 0 00-.15-.779 1.862 1.862 0 00-.386-.58 2.281 2.281 0 00-1.1-.612v-.035c.277-.1.514-.236.714-.409a1.722 1.722 0 00.627-1.328 1.814 1.814 0 00-.18-.816 1.63 1.63 0 00-.49-.579 2.057 2.057 0 00-.547-.327 3.156 3.156 0 00-.707-.187 5.961 5.961 0 00-.91-.061 9.966 9.966 0 00-1.343.084 5.403 5.403 0 00-.528.092v7.766zm1.023-7.084c.08-.02.192-.035.337-.05.145-.013.335-.02.569-.02.347-.003.65.042.907.13.26.088.46.227.604.419.143.189.216.436.217.74 0 .257-.068.486-.203.687-.135.2-.33.358-.584.473-.253.117-.56.176-.918.178h-.93v-2.557zm0 3.32h.847c.282 0 .545.029.792.088.245.058.462.15.65.273.188.123.336.281.442.475.105.192.16.423.162.688a1.496 1.496 0 01-.168.725c-.11.198-.26.357-.451.476a2.05 2.05 0 01-.65.258c-.244.053-.5.08-.766.078-.181 0-.344-.004-.486-.01a3.449 3.449 0 01-.372-.037v-3.015zm10.68 2.72a2.83 2.83 0 01-.479.175 4.66 4.66 0 01-1.204.154c-.64-.003-1.187-.133-1.638-.39a2.56 2.56 0 01-1.035-1.1c-.24-.473-.36-1.036-.361-1.689.002-.52.076-.981.222-1.386.146-.403.356-.745.627-1.023.272-.28.598-.49.976-.635.38-.145.801-.217 1.269-.217.331.002.63.033.899.094.269.06.498.139.688.234l.259-.833c-.09-.048-.221-.1-.392-.154a4.29 4.29 0 00-.627-.137 5.892 5.892 0 00-.863-.06 4.64 4.64 0 00-1.684.299c-.506.198-.941.48-1.308.845a3.757 3.757 0 00-.846 1.31c-.2.508-.3 1.075-.302 1.698.004.652.102 1.226.296 1.727a3.422 3.422 0 002.056 2.025c.473.172.99.26 1.553.26.323-.001.62-.02.89-.054.27-.037.51-.084.713-.14.204-.058.367-.116.49-.181l-.2-.821zm1.493-6.839v7.907h1.023v-3.625h.33c.333 0 .619.044.858.128.237.086.441.205.608.361.166.155.308.34.423.556.118.215.22.453.31.715.075.21.15.423.223.64.075.218.153.431.235.641.083.207.173.403.271.584h1.094a10.752 10.752 0 01-.31-.713 27.714 27.714 0 01-.274-.743c-.09-.254-.187-.514-.287-.785a5.631 5.631 0 00-.33-.744 2.71 2.71 0 00-.438-.61 2.13 2.13 0 00-.608-.444 2.733 2.733 0 00-.847-.242l3-3.626h-1.223l-2.717 3.508h-.318v-3.508h-1.023zm6.374 0v7.907h1.094l2.482-3.941a35.4 35.4 0 00.792-1.326c.255-.447.482-.889.678-1.326l.035.013c-.027.33-.047.66-.06.99-.014.333-.022.68-.028 1.042-.004.364-.006.757-.006 1.181v3.367h.965v-7.907H86.29l-2.564 4.071c-.288.468-.555.919-.8 1.353-.245.433-.465.855-.659 1.263l-.035-.011c.023-.35.041-.704.054-1.06.014-.356.024-.722.032-1.099.006-.377.008-.772.008-1.184v-3.333h-.965zm11.833 3.356h-3.07V35.26h3.258v-.857H89.09v7.907h4.47v-.856h-3.435v-2.85h3.07v-.845zm66.504-3.356v7.907h1.035v-3.706h3.834v3.706h1.035v-7.907h-1.035v3.309h-3.834v-3.309h-1.035zm10.879-.14c-.531.002-1.021.1-1.466.295a3.371 3.371 0 00-1.162.839 3.84 3.84 0 00-.765 1.31 5.08 5.08 0 00-.277 1.71c.002.599.089 1.144.261 1.637.173.491.416.915.731 1.271.316.356.693.63 1.127.823.436.192.916.29 1.445.291.406 0 .794-.058 1.161-.174a3.344 3.344 0 001.807-1.354c.226-.335.402-.722.525-1.162a5.47 5.47 0 00.188-1.474 5.037 5.037 0 00-.252-1.62 3.683 3.683 0 00-.72-1.27 3.184 3.184 0 00-1.126-.827 3.641 3.641 0 00-1.477-.295zm-.035.833a2.204 2.204 0 011.627.679c.202.21.37.453.504.727.133.273.233.567.299.875.065.311.099.626.099.945 0 .452-.057.876-.169 1.271a3.355 3.355 0 01-.492 1.044 2.374 2.374 0 01-.798.71c-.315.17-.676.256-1.082.26a2.32 2.32 0 01-.888-.17 2.264 2.264 0 01-.707-.472 2.734 2.734 0 01-.518-.706 3.673 3.673 0 01-.32-.88 4.81 4.81 0 01-.005-1.993c.066-.321.168-.622.305-.9a2.81 2.81 0 01.51-.727 2.2 2.2 0 01.716-.486 2.34 2.34 0 01.919-.177zm4.304-.693l2.799 3.638a2.492 2.492 0 00-.798.224 1.978 1.978 0 00-.579.43 2.868 2.868 0 00-.424.614 6.139 6.139 0 00-.327.773c-.084.246-.167.494-.247.745-.079.25-.163.498-.251.747a8.96 8.96 0 01-.302.736h1.046c.087-.177.166-.375.24-.59.072-.215.143-.43.21-.65.066-.218.131-.424.198-.613a6.52 6.52 0 01.297-.733 2.19 2.19 0 01.385-.557 1.48 1.48 0 01.552-.357c.218-.081.485-.125.8-.125h.365v3.625h.988v-3.625h.353c.315 0 .582.044.801.125.218.083.402.202.551.357.15.154.277.34.385.557.105.219.206.461.298.733.062.19.125.395.192.614.064.218.135.434.207.649.075.215.158.413.248.59h1.046a8.565 8.565 0 01-.29-.736 23.4 23.4 0 01-.243-.751 23.05 23.05 0 00-.243-.754 5.799 5.799 0 00-.329-.776 2.81 2.81 0 00-.43-.617 1.983 1.983 0 00-.587-.429 2.414 2.414 0 00-.806-.206l2.81-3.638h-1.187l-2.458 3.508h-.318v-3.508h-.988v3.508h-.318l-2.458-3.508h-1.188zm10.056 0v7.907h1.094l2.482-3.941c.274-.436.537-.878.791-1.326.256-.447.483-.889.679-1.326l.035.013c-.027.33-.047.66-.061.99-.013.333-.021.68-.027 1.042-.004.364-.006.757-.006 1.181v3.367h.964v-7.907h-1.022l-2.565 4.071c-.287.468-.554.919-.8 1.353a20.61 20.61 0 00-.658 1.263l-.035-.011c.023-.35.041-.704.054-1.06.014-.356.024-.722.032-1.099.006-.377.008-.772.008-1.184v-3.333h-.965z"/></svg><svg viewBox="0 0 17 23" id="rub" xmlns="http://www.w3.org/2000/svg"><path d="M1 9.167h1.154V1h8.654C13.692 1 16 3.333 16 6.25s-2.308 5.25-5.192 5.25H4.462v2.333h6.923v2.334H4.462V22H2.154v-5.833H1v-2.334h1.154V11.5H1V9.167zm9.808-5.834H4.462v5.834h6.346c.765 0 1.498-.308 2.04-.855a2.933 2.933 0 00.844-2.062c0-.774-.304-1.515-.845-2.062a2.868 2.868 0 00-2.04-.855z"/></svg><svg viewBox="0 0 13 12" id="search" xmlns="http://www.w3.org/2000/svg"><circle cx="4.5" cy="4.5" r="4"/><path d="M7.355 6.648l4.655 4.618"/></svg><svg viewBox="0 0 22 29" id="user" xmlns="http://www.w3.org/2000/svg"><path d="M10.594 15.312h.167c1.524-.029 2.757-.619 3.667-1.747 2.003-2.487 1.67-6.748 1.634-7.155-.13-3.053-1.441-4.514-2.523-5.196-.807-.51-1.748-.785-2.8-.808h-.088c-.577 0-1.711.104-2.799.785-1.092.682-2.424 2.143-2.554 5.219-.036.407-.37 4.668 1.634 7.155.905 1.128 2.138 1.718 3.662 1.747zM6.687 6.553c0-.017.005-.034.005-.046.172-4.107 2.82-4.548 3.954-4.548h.063c1.404.034 3.792.664 3.953 4.548 0 .017 0 .035.006.046.005.04.369 3.935-1.285 5.986-.656.814-1.53 1.215-2.68 1.226h-.052c-1.144-.011-2.023-.412-2.674-1.226-1.649-2.04-1.295-5.952-1.29-5.986z"/><path d="M21.368 22.38v-.017c0-.046-.005-.091-.005-.143-.031-1.134-.099-3.786-2.357-4.634-.015-.006-.036-.012-.052-.017-2.346-.66-4.297-2.148-4.318-2.166-.317-.246-.754-.16-.978.19-.224.349-.146.83.172 1.076.088.07 2.159 1.656 4.75 2.39 1.212.474 1.347 1.9 1.384 3.207 0 .052 0 .097.005.143.005.516-.026 1.312-.11 1.77-.842.527-4.146 2.349-9.172 2.349-5.004 0-8.329-1.827-9.177-2.354-.083-.459-.12-1.255-.11-1.77 0-.046.006-.092.006-.144.037-1.306.172-2.732 1.384-3.208 2.59-.733 4.661-2.325 4.75-2.388a.825.825 0 00.172-1.077c-.224-.35-.661-.436-.979-.19-.02.018-1.96 1.507-4.318 2.166a.613.613 0 00-.052.017C.105 18.434.038 21.086.007 22.214c0 .052 0 .098-.006.144v.017c-.005.298-.01 1.827.266 2.595a.723.723 0 00.27.36c.156.115 3.897 2.739 10.156 2.739 6.258 0 9.999-2.63 10.155-2.738a.755.755 0 00.27-.361c.26-.762.255-2.292.25-2.59z"/></svg></svg>