<svg width="16" height="16" viewBox="0 0 16 16" fill="none" xmlns="http://www.w3.org/2000/svg">
<path d="M15.0873 11.6797L13.2176 9.7111C12.7022 9.1684 11.8634 9.1684 11.348 9.7111L10.4981 10.6059C10.1076 11.0171 9.4722 11.0169 9.08185 10.6061L5.39829 6.72429C5.00687 6.31217 5.00681 5.64513 5.39829 5.23294C5.53517 5.08882 5.92823 4.67496 6.24812 4.33815C6.76132 3.79782 6.76849 2.91744 6.24762 2.36907L4.37847 0.407207C3.863 -0.135498 3.02427 -0.135498 2.51019 0.405784C2.1255 0.8073 2.00142 0.936829 1.82894 1.11686C-0.0298785 3.074 -0.0298786 6.25851 1.82885 8.21558L7.66532 14.3641C9.52849 16.3258 12.5441 16.326 14.4074 14.3641L15.0873 13.6482C15.6027 13.1055 15.6027 12.2224 15.0873 11.6797ZM3.13205 1.06339C3.30386 0.882487 3.58339 0.882457 3.75576 1.06388L5.62491 3.02575C5.79713 3.20709 5.79713 3.50057 5.62491 3.68193L5.31328 4.01002L2.82203 1.38696L3.13205 1.06339ZM8.28865 13.708L2.45215 7.55943C1.01403 6.04522 0.934985 3.66758 2.20904 2.05394L4.69307 4.66939C4.04037 5.44845 4.06757 6.63559 4.77493 7.38038L8.45837 11.262C8.4584 11.262 8.45846 11.2621 8.45849 11.2621C9.16509 12.0061 10.2925 12.0366 11.0333 11.3484L13.5174 13.9639C11.9897 15.3031 9.73666 15.2326 8.28865 13.708ZM14.4641 12.992L14.1525 13.3202L11.6596 10.6954L11.9712 10.3673C12.143 10.1864 12.4226 10.1864 12.5944 10.3673L14.4641 12.3359C14.6359 12.5168 14.6359 12.8112 14.4641 12.992Z" fill="white"/>
</svg>
