<svg width="18" height="25" viewBox="0 0 18 25" fill="none" xmlns="http://www.w3.org/2000/svg">
<path d="M9.47526 0C4.77616 0 0.953125 3.85087 0.953125 8.5842C0.953125 10.1834 1.39291 11.7441 2.22524 13.0982L8.99016 24.0791C9.11975 24.2895 9.34804 24.4173 9.59358 24.4173C9.59547 24.4173 9.59732 24.4173 9.59921 24.4173C9.84687 24.4153 10.0756 24.2836 10.2029 24.0695L16.7953 12.9822C17.5818 11.6568 17.9974 10.136 17.9974 8.5842C17.9974 3.85087 14.1744 0 9.47526 0ZM15.5764 12.2477L9.58283 22.3278L3.43245 12.3444C2.73965 11.2174 2.36401 9.91714 2.36401 8.5842C2.36401 4.63976 5.55934 1.42116 9.47526 1.42116C13.3912 1.42116 16.5818 4.63976 16.5818 8.5842C16.5818 9.87761 16.2309 11.1446 15.5764 12.2477Z" fill="black"/>
<path d="M9.47165 3.61719C6.861 3.61719 4.73706 5.64563 4.73706 8.13891C4.73706 10.6163 6.82644 12.6606 9.47165 12.6606C12.1495 12.6606 14.2062 10.589 14.2062 8.13891C14.2062 5.64563 12.0823 3.61719 9.47165 3.61719ZM9.47165 11.1634C7.72212 11.1634 6.30474 9.80526 6.30474 8.13891C6.30474 6.47672 7.73122 5.11438 9.47165 5.11438C11.2121 5.11438 12.6333 6.47672 12.6333 8.13891C12.6333 9.78094 11.2489 11.1634 9.47165 11.1634Z" fill="black"/>
</svg>
