<svg width="32" height="34" viewBox="0 0 32 34" fill="none" xmlns="http://www.w3.org/2000/svg">
<path d="M7.22141 7.76882H29.8648C30.5178 7.76882 30.9956 8.38457 30.8335 9.01715L28.9273 16.4524C28.5871 17.7794 27.3912 18.7074 26.0213 18.7074H9.12162M0.0727539 1.49957H4.74215C5.72506 1.49957 6.56228 2.21379 6.71717 3.18441L9.74471 22.157C9.89959 23.1276 10.7368 23.8418 11.7197 23.8418H28.3492" stroke="black" stroke-width="1.5"/>
<path d="M15.8844 30.2656C15.8844 31.5659 14.8722 32.5758 13.6773 32.5758C12.4824 32.5758 11.4702 31.5659 11.4702 30.2656C11.4702 28.9653 12.4824 27.9554 13.6773 27.9554C14.8722 27.9554 15.8844 28.9653 15.8844 30.2656Z" stroke="black" stroke-width="1.5"/>
<path d="M28.8956 30.2656C28.8956 31.5659 27.8834 32.5758 26.6885 32.5758C25.4936 32.5758 24.4814 31.5659 24.4814 30.2656C24.4814 28.9653 25.4936 27.9554 26.6885 27.9554C27.8834 27.9554 28.8956 28.9653 28.8956 30.2656Z" stroke="black" stroke-width="1.5"/>
</svg>
