<svg width="12" height="17" viewBox="0 0 12 17" fill="none" xmlns="http://www.w3.org/2000/svg">
<path d="M5.95451 0C2.91391 0 0.440186 2.60071 0.440186 5.7974C0.440186 6.87745 0.724755 7.93148 1.26332 8.84592L5.64062 16.262C5.72447 16.4041 5.87219 16.4904 6.03107 16.4904C6.03229 16.4904 6.03349 16.4904 6.03471 16.4904C6.19496 16.489 6.34299 16.4001 6.42531 16.2555L10.691 8.76759C11.1999 7.87248 11.4688 6.8454 11.4688 5.7974C11.4688 2.60071 8.99511 0 5.95451 0ZM9.90234 8.27153L6.02411 15.0792L2.04446 8.33685C1.59617 7.57571 1.35311 6.6976 1.35311 5.7974C1.35311 3.13349 3.42068 0.959791 5.95451 0.959791C8.48834 0.959791 10.5528 3.13349 10.5528 5.7974C10.5528 6.6709 10.3258 7.52657 9.90234 8.27153Z" fill="white"/>
<path d="M5.95463 2.44336C4.26541 2.44336 2.89111 3.81328 2.89111 5.49713C2.89111 7.17022 4.24304 8.5509 5.95463 8.5509C7.68731 8.5509 9.01814 7.15183 9.01814 5.49713C9.01814 3.81328 7.64385 2.44336 5.95463 2.44336ZM5.95463 7.53976C4.82259 7.53976 3.90548 6.62251 3.90548 5.49713C3.90548 4.37456 4.82848 3.4545 5.95463 3.4545C7.08077 3.4545 8.00037 4.37456 8.00037 5.49713C8.00037 6.60609 7.1046 7.53976 5.95463 7.53976Z" fill="white"/>
</svg>
