<svg width="191" height="43" viewBox="0 0 191 43" fill="none" xmlns="http://www.w3.org/2000/svg">
<path fill-rule="evenodd" clip-rule="evenodd" d="M96.6125 38.3538C96.6125 38.3538 97.7417 37.8078 99.7221 37.0732C100.743 37.56 102.979 38.5741 105.145 39.1981C108.075 40.0425 110.029 39.9125 112.765 39.9125C115.5 39.9125 119.408 39.4578 119.408 39.4578C119.408 39.4578 118.822 37.3144 118.756 35.7554C118.692 34.1961 118.692 33.9364 118.692 33.9364C118.692 33.9364 118.105 36.1451 118.235 37.3144C118.366 38.4834 118.366 38.8734 118.366 38.8734C118.366 38.8734 113.221 39.3931 109.573 39.0031C105.926 38.6134 103.712 38.2234 102.149 37.7041C101.287 37.4175 100.466 37.171 99.9016 37.0069C102.665 35.9923 106.989 34.6479 112.178 33.8717C121.296 32.5074 119.473 32.962 119.473 32.962C119.473 32.962 119.668 32.5723 120.84 32.4427C122.013 32.3127 133.996 31.728 137.709 31.9877C141.421 32.2474 151.646 32.7673 153.144 33.7417C154.642 34.716 155.228 35.6904 154.772 38.0938C154.317 40.4974 153.405 42.8361 152.558 42.3162C151.711 41.7965 148.846 39.5881 146.111 39.1981C143.375 38.8084 140.379 38.8734 139.142 39.1981C137.904 39.5231 135.82 40.8222 134.843 40.4975C133.866 40.1728 131.912 38.3538 130.349 39.0034C128.786 39.6531 128.721 39.8478 128.005 40.7571C127.288 41.6668 126.311 42.7062 125.53 41.7318C124.748 40.7572 123.315 40.3025 122.078 40.2375C120.84 40.1728 119.733 40.5625 119.408 40.8871C119.082 41.2121 118.626 41.8615 118.626 41.8615C118.626 41.8615 116.607 41.3421 114.262 41.6018C111.918 41.8615 107.88 42.0565 105.145 41.5368C102.409 41.0171 96.6125 38.3538 96.6125 38.3538V38.3538ZM121.231 39.1331C121.231 39.1331 123.837 38.6784 124.814 39.3928C125.79 40.1075 125.986 40.6922 127.744 39.2631C129.503 37.8338 130.61 36.7944 132.564 37.8338C134.518 38.8734 135.43 39.5228 137.318 38.5485C139.207 37.5741 143.31 36.5348 146.762 37.9638C150.214 39.3928 152.884 41.6665 153.405 40.2375C153.926 38.8081 154.187 37.2491 151.516 36.6647C148.846 36.0801 144.873 35.4304 141.226 36.0151C137.579 36.5997 136.928 38.2885 135.43 37.8338C133.931 37.3791 132.303 36.0151 130.48 36.7294C128.656 37.4441 127.093 39.6528 125.595 38.9381C124.097 38.2238 123.055 37.5741 122.143 38.0288C121.231 38.4835 121.231 39.1331 121.231 39.1331V39.1331Z" fill="#1F1C21"/>
<path d="M1.97089 0.342795V10.0029H2.41703C2.45149 9.44913 2.53734 8.88944 2.68052 8.33008C2.81775 7.76478 2.99508 7.22263 3.21847 6.70296C3.4359 6.18891 3.6878 5.7211 3.97384 5.2983C4.25457 4.88175 4.56349 4.54456 4.89026 4.28175C5.13057 4.08238 5.43949 3.89364 5.82298 3.71115C6.20646 3.52834 6.66452 3.37991 7.19683 3.26585C7.73509 3.14585 8.34761 3.08868 9.04565 3.08305H16.3269L1.00903 24.1162L1.07765 24.3219H23.2306V13.2228H22.7841C22.7497 13.8512 22.6864 14.4902 22.5949 15.1355C22.4978 15.7808 22.3662 16.409 22.1945 17.0196C22.0168 17.6305 21.7934 18.1958 21.519 18.7211C21.2442 19.2408 20.9121 19.6917 20.517 20.0742C20.0192 20.5367 19.4925 20.8735 18.943 21.0907C18.3878 21.3076 17.8383 21.4444 17.2828 21.5016C16.7335 21.5644 16.2069 21.587 15.7087 21.5813H8.15273L23.4023 0.548112L23.2306 0.342795H1.97089V0.342795ZM30.134 20.4854C30.1396 20.7648 30.1283 21.0504 30.0942 21.3473C30.0653 21.6441 29.9851 21.941 29.8651 22.2266C29.7448 22.5122 29.5443 22.7804 29.2755 23.0204C29.0176 23.2313 28.7319 23.3972 28.4051 23.5057C28.0849 23.62 27.7528 23.6997 27.4094 23.7453C27.0658 23.791 26.7396 23.825 26.4247 23.8425L25.841 23.8766V24.3219H49.9512V13.9078H49.5047L49.402 14.9702C49.3503 15.5352 49.2701 16.0949 49.1673 16.6655C49.0583 17.2308 48.8866 17.7789 48.6406 18.3098C48.4 18.8467 48.0453 19.3376 47.5816 19.8001C47.4385 19.9486 47.2267 20.1257 46.9519 20.3251C46.6768 20.5251 46.3281 20.7195 45.8986 20.9076C45.4693 21.102 44.9539 21.2617 44.353 21.3876C43.7518 21.5129 43.0537 21.5757 42.2579 21.5813H34.3927V4.17925C34.3871 3.97925 34.3984 3.72833 34.4331 3.43146C34.4616 3.1346 34.5415 2.82618 34.6618 2.5065C34.7881 2.18651 34.9824 1.90152 35.2515 1.64434C35.4977 1.42747 35.7838 1.26746 36.11 1.15933C36.4424 1.04496 36.7798 0.964981 37.1291 0.919044C37.4725 0.873733 37.799 0.839341 38.1023 0.822153L38.6863 0.788097V0.342795H25.841V0.788097L26.4247 0.822153C26.7283 0.839341 27.0545 0.873733 27.4038 0.919044C27.7469 0.964981 28.0849 1.04496 28.4167 1.15933C28.7432 1.26746 29.0295 1.42747 29.2755 1.64434C29.5443 1.90152 29.7448 2.18651 29.8651 2.5065C29.9851 2.82618 30.0653 3.1346 30.0942 3.43146C30.1283 3.72833 30.1396 3.97925 30.134 4.17925V20.4854V20.4854ZM62.6247 0L55.1373 18.0189C54.8857 18.6067 54.6567 19.1092 54.4506 19.5204C54.2444 19.9314 54.0671 20.2742 53.9126 20.5479C53.7578 20.8163 53.6263 21.0335 53.5235 21.2045C53.4145 21.3876 53.26 21.6101 53.0711 21.8613C52.8821 22.1123 52.6419 22.3694 52.3499 22.6319C52.0635 22.8891 51.7204 23.1232 51.3137 23.3288C50.913 23.5341 50.4493 23.6825 49.917 23.7741L49.2644 23.8766V24.3219H61.5946V23.8766L60.7358 23.8081C60.3984 23.7853 60.0374 23.7281 59.654 23.6369C59.2705 23.5456 58.9099 23.4028 58.5662 23.2144C58.2231 23.026 57.9367 22.7804 57.7137 22.4719C57.5301 22.2154 57.4044 21.9129 57.3302 21.5588C57.2612 21.2104 57.2381 20.8504 57.2728 20.4798C57.301 20.1145 57.3812 19.7717 57.5075 19.4576L58.8127 16.2718H67.605L69.1506 20.0401C69.2421 20.251 69.3166 20.4798 69.3852 20.7307C69.4538 20.9876 69.488 21.2335 69.494 21.4788C69.488 21.9869 69.3909 22.3922 69.1963 22.6891C69.0074 22.9916 68.7611 23.2144 68.4638 23.3628C68.3087 23.4541 68.1201 23.5282 67.9027 23.5853C67.6849 23.6425 67.4221 23.6941 67.1012 23.7338C66.7807 23.7741 66.3857 23.8081 65.9223 23.8425L65.4069 23.8766V24.3219H78.8706V23.8766L78.3207 23.8425C77.9144 23.8194 77.5133 23.7509 77.1186 23.6369C76.7238 23.5281 76.3629 23.3853 76.0311 23.2144C75.6933 23.0432 75.4183 22.8488 75.1952 22.6438C74.995 22.4438 74.8001 22.181 74.6171 21.8613C74.4282 21.536 74.2221 21.1076 73.9874 20.571C73.7584 20.0401 73.472 19.3608 73.1346 18.5326L65.5444 0H62.6247V0ZM66.7466 13.8737H59.6712L63.1746 5.44673H63.2432L66.7466 13.8737ZM89.2429 3.08305H91.7844C91.9846 3.07743 92.2368 3.08867 92.5401 3.1118C92.8434 3.13461 93.1695 3.18024 93.5245 3.26023C93.8795 3.33429 94.2341 3.45398 94.5891 3.61429C94.9497 3.77991 95.2818 4.00239 95.5967 4.28175C95.8831 4.54456 96.1406 4.89298 96.3753 5.33266C96.604 5.77202 96.8105 6.25763 96.9818 6.78856C97.1595 7.32511 97.3024 7.86791 97.4114 8.41571C97.5198 8.96382 97.5887 9.48319 97.6232 9.96881H98.0696V0.342795H76.1573V9.96881H76.6038C76.6379 9.48319 76.7122 8.96382 76.8213 8.41571C76.9243 7.86791 77.0672 7.32511 77.2445 6.78856C77.4165 6.25763 77.6224 5.77202 77.8573 5.33266C78.0864 4.89298 78.3439 4.54456 78.63 4.28175C78.9448 4.00239 79.2769 3.77991 79.6372 3.61429C79.9925 3.45398 80.3475 3.33429 80.7025 3.26023C81.0571 3.18024 81.3836 3.13461 81.6869 3.1118C81.9902 3.08867 82.2421 3.07743 82.4426 3.08305H84.9841V20.4854C84.9898 20.6851 84.9785 20.9363 84.9437 21.2335C84.9152 21.5304 84.8353 21.8385 84.715 22.1582C84.595 22.4719 84.3945 22.7632 84.1253 23.0204C83.8791 23.2313 83.593 23.3972 83.2669 23.5057C82.9345 23.62 82.597 23.6941 82.2533 23.7453C81.9043 23.791 81.5778 23.8194 81.2746 23.8425L80.6906 23.8766V24.3219H93.5358V23.8766L92.9521 23.8425C92.6485 23.8194 92.3224 23.791 91.979 23.7453C91.63 23.6941 91.2919 23.62 90.9601 23.5057C90.6336 23.3972 90.3479 23.2313 90.1013 23.0204C89.8325 22.7632 89.6376 22.4719 89.5117 22.1582C89.3917 21.8385 89.3115 21.5304 89.2827 21.2335C89.2485 20.9363 89.2372 20.6851 89.2429 20.4854V3.08305V3.08305ZM132.999 0.342795H122.695L116.273 16.6146H116.17L109.747 0.342795H99.0315V0.788097L99.6155 0.822153C99.9188 0.839341 100.245 0.873733 100.594 0.919044C100.937 0.964981 101.275 1.04496 101.607 1.15933C101.934 1.26746 102.22 1.42747 102.466 1.64434C102.735 1.90152 102.935 2.18651 103.056 2.5065C103.176 2.82618 103.256 3.1346 103.285 3.43146C103.319 3.72833 103.33 3.97925 103.324 4.17925V19.8001C103.33 20.0629 103.313 20.3823 103.279 20.7592C103.245 21.136 103.164 21.5185 103.039 21.9013C102.918 22.2838 102.723 22.6091 102.466 22.8835C102.243 23.1004 101.957 23.2772 101.619 23.4144C101.281 23.5513 100.932 23.6541 100.577 23.7225C100.216 23.791 99.8959 23.8309 99.6155 23.8425L99.0315 23.8766V24.3219H110.606V23.8766L110.022 23.8425C109.742 23.8309 109.421 23.791 109.06 23.7225C108.705 23.6541 108.356 23.5513 108.018 23.4144C107.681 23.2772 107.395 23.1004 107.172 22.8835C106.965 22.6719 106.805 22.4266 106.69 22.141C106.57 21.8557 106.485 21.5644 106.433 21.2616C106.381 20.9648 106.347 20.6851 106.33 20.4282C106.318 20.1654 106.313 19.9601 106.313 19.8001V3.66553H106.416L114.59 24.3219H116.17L124.344 3.66553H124.447V20.4854C124.453 20.6851 124.442 20.9363 124.407 21.2335C124.379 21.5304 124.304 21.8385 124.178 22.1582C124.058 22.4719 123.858 22.7632 123.588 23.0204C123.342 23.2313 123.056 23.3972 122.73 23.5057C122.398 23.62 122.06 23.6941 121.717 23.7453C121.367 23.791 121.041 23.8194 120.738 23.8425L120.154 23.8766V24.3219H132.999V23.8766L132.415 23.8425C132.112 23.8194 131.786 23.791 131.442 23.7453C131.093 23.6941 130.755 23.62 130.429 23.5057C130.097 23.3972 129.811 23.2313 129.564 23.0204C129.295 22.7632 129.101 22.4719 128.975 22.1582C128.855 21.8385 128.775 21.5304 128.746 21.2335C128.718 20.9363 128.7 20.6851 128.706 20.4854V4.17925C128.7 3.97925 128.718 3.72833 128.746 3.43146C128.775 3.1346 128.855 2.82618 128.975 2.5065C129.101 2.18651 129.295 1.90152 129.564 1.64434C129.811 1.42747 130.097 1.26746 130.429 1.15933C130.755 1.04496 131.093 0.964981 131.442 0.919044C131.786 0.873733 132.112 0.839341 132.415 0.822153L132.999 0.788097V0.342795V0.342795ZM145.604 0L138.116 18.0189C137.865 18.6067 137.636 19.1092 137.43 19.5204C137.223 19.9314 137.046 20.2742 136.892 20.5479C136.737 20.8163 136.605 21.0335 136.503 21.2045C136.394 21.3876 136.239 21.6101 136.05 21.8613C135.861 22.1123 135.621 22.3694 135.329 22.6319C135.043 22.8891 134.699 23.1232 134.293 23.3288C133.892 23.5341 133.429 23.6825 132.896 23.7741L132.243 23.8766V24.3219H144.574V23.8766L143.715 23.8081C143.377 23.7853 143.017 23.7281 142.633 23.6369C142.25 23.5456 141.889 23.4028 141.545 23.2144C141.202 23.026 140.916 22.7804 140.693 22.4719C140.509 22.2154 140.383 21.9129 140.309 21.5588C140.24 21.2104 140.217 20.8504 140.252 20.4798C140.28 20.1145 140.36 19.7717 140.487 19.4576L141.792 16.2718H150.584L152.13 20.0401C152.221 20.251 152.296 20.4798 152.364 20.7307C152.433 20.9876 152.467 21.2335 152.473 21.4788C152.467 21.9869 152.37 22.3922 152.175 22.6891C151.986 22.9916 151.74 23.2144 151.443 23.3628C151.288 23.4541 151.099 23.5282 150.882 23.5853C150.664 23.6425 150.401 23.6941 150.08 23.7338C149.76 23.7741 149.365 23.8081 148.901 23.8425L148.386 23.8766V24.3219H161.85V23.8766L161.3 23.8425C160.893 23.8194 160.492 23.7509 160.098 23.6369C159.703 23.5281 159.342 23.3853 159.01 23.2144C158.672 23.0432 158.397 22.8488 158.174 22.6438C157.974 22.4438 157.779 22.181 157.596 21.8613C157.407 21.536 157.201 21.1076 156.966 20.571C156.737 20.0401 156.451 19.3608 156.114 18.5326L148.523 0H145.604V0ZM149.726 13.8737H142.65L146.154 5.44673H146.222L149.726 13.8737ZM160.613 0.342795V0.788097L161.266 0.92527C161.684 1.02214 162.113 1.20466 162.553 1.46746C162.994 1.72996 163.418 2.03243 163.824 2.38086C164.231 2.72929 164.592 3.07743 164.906 3.42554L172.84 12.2297L166.143 20.0058C166.028 20.1486 165.862 20.3195 165.656 20.5251C165.45 20.7307 165.221 20.9479 164.981 21.1704C164.735 21.3932 164.506 21.5988 164.282 21.787C164.065 21.9757 163.881 22.1241 163.739 22.2323C163.2 22.6263 162.617 22.9688 161.987 23.2488C161.363 23.5281 160.745 23.7397 160.132 23.8766V24.3219H173.63V23.8766L172.806 23.8081C172.159 23.751 171.661 23.6766 171.306 23.5913C170.957 23.4997 170.722 23.4369 170.607 23.3972C170.362 23.3056 170.133 23.1916 169.915 23.0375C169.698 22.8891 169.514 22.7004 169.377 22.4607C169.24 22.2266 169.171 21.9354 169.165 21.5813C169.171 21.3132 169.245 21.0335 169.383 20.7367C169.52 20.4398 169.675 20.1654 169.852 19.9145C170.029 19.6632 170.178 19.4632 170.299 19.3204L174.66 14.2506L179.366 19.4232C179.612 19.6861 179.841 19.9601 180.058 20.2398C180.276 20.5251 180.459 20.8107 180.597 21.1076C180.734 21.3988 180.802 21.6957 180.808 21.9926C180.802 22.3294 180.711 22.6091 180.528 22.8319C180.35 23.0488 180.11 23.2257 179.812 23.3628C179.498 23.5169 179.131 23.6313 178.725 23.7056C178.318 23.7797 177.912 23.825 177.511 23.8425L176.515 23.8766V24.3219H190.94V23.8766C190.563 23.8309 190.15 23.7338 189.709 23.5853C189.263 23.4369 188.794 23.2029 188.295 22.8835C187.672 22.4494 187.065 21.9298 186.486 21.3132C185.909 20.702 185.296 20.0282 184.655 19.2864L177.339 11.1331L181.976 5.78953C182.308 5.40704 182.657 5.00144 183.023 4.56739C183.396 4.13334 183.79 3.71114 184.214 3.29991C184.632 2.88898 185.09 2.51804 185.582 2.19211C185.886 1.99837 186.218 1.80963 186.59 1.63308C186.962 1.45621 187.351 1.30777 187.757 1.17621C188.158 1.04496 188.553 0.947789 188.948 0.890603L189.635 0.788097V0.342795H175.828V0.788097L176.687 0.856546C177.317 0.907795 177.832 0.999014 178.232 1.12464C178.633 1.25057 178.942 1.40464 179.159 1.57589C179.412 1.76432 179.595 1.96994 179.698 2.19837C179.801 2.43243 179.853 2.689 179.847 2.98024C179.841 3.32305 179.795 3.62551 179.698 3.89926C179.606 4.168 179.492 4.40208 179.354 4.6077C179.217 4.81332 179.085 4.99017 178.954 5.1386L175.519 9.14665L170.642 3.73395C170.459 3.52833 170.327 3.34586 170.258 3.18586C170.19 3.02618 170.155 2.87775 170.161 2.74056C170.155 2.47776 170.218 2.2212 170.362 1.96995C170.499 1.7184 170.751 1.4959 171.123 1.30185C171.3 1.22154 171.506 1.14746 171.747 1.08496C171.987 1.02215 172.234 0.970602 172.479 0.930915C172.725 0.896541 172.949 0.868108 173.149 0.856546L173.939 0.788097V0.342795H160.613V0.342795Z" fill="#1F1C21"/>
<path d="M0.938769 35.6121C1.08602 35.52 1.24894 35.4359 1.42721 35.3575C1.60548 35.28 1.79378 35.2171 1.99179 35.17C2.19136 35.1215 2.39345 35.0978 2.59741 35.0956C2.88189 35.0956 3.13066 35.1446 3.34246 35.2406C3.55613 35.3381 3.72062 35.479 3.83999 35.6649C3.95779 35.8528 4.01857 36.0812 4.02076 36.3512C4.01857 36.5546 3.97157 36.744 3.87539 36.9202C3.78108 37.0958 3.64793 37.2483 3.4775 37.3815C3.30894 37.5143 3.11091 37.618 2.88345 37.6924C2.6585 37.7664 2.41318 37.8039 2.15032 37.8058H1.69165V38.5802H2.16192C2.36651 38.5802 2.57015 38.5939 2.7738 38.6249C2.97933 38.6542 3.1739 38.7049 3.35812 38.7752C3.54047 38.8461 3.70494 38.9399 3.84812 39.0567C3.9913 39.1742 4.10504 39.3189 4.18713 39.4908C4.27141 39.663 4.31276 39.8686 4.31464 40.1051C4.31464 40.3961 4.24415 40.6545 4.10504 40.8792C3.96374 41.1061 3.75978 41.282 3.49159 41.411C3.22058 41.5382 2.89349 41.6045 2.50311 41.607C2.28223 41.6045 2.06229 41.581 1.84454 41.536C1.62523 41.491 1.41907 41.4323 1.22732 41.3604C1.03276 41.2879 0.86264 41.2095 0.715386 41.1254L0.445312 41.9235C0.754545 42.1032 1.08603 42.236 1.44101 42.3185C1.79536 42.4001 2.15439 42.4416 2.51532 42.4395C2.80732 42.4395 3.09149 42.4123 3.36971 42.357C3.65011 42.3023 3.91047 42.2182 4.15422 42.1032C4.39892 41.9879 4.61259 41.8395 4.79901 41.6592C4.9848 41.4773 5.13017 41.2626 5.23576 41.0105C5.34165 40.7583 5.39462 40.4686 5.39649 40.1404C5.38898 39.7586 5.30219 39.4286 5.13363 39.1474C4.96507 38.8658 4.73761 38.6389 4.44812 38.4708C4.15768 38.3027 3.82871 38.1989 3.45619 38.1574V38.1346C3.76573 38.0618 4.04206 37.9346 4.28675 37.7549C4.53238 37.5749 4.72853 37.3521 4.87108 37.0858C5.01426 36.8205 5.08695 36.5252 5.09102 36.1987C5.08695 35.7899 4.98888 35.4415 4.79306 35.1543C4.59693 34.8672 4.32624 34.6459 3.97753 34.4934C3.62819 34.3412 3.22465 34.2647 2.76189 34.2631C2.32891 34.2647 1.93852 34.3219 1.59169 34.4287C1.24706 34.5387 0.938766 34.6809 0.668696 34.8612L0.938769 35.6121V35.6121ZM7.31361 34.4034V37.7355C7.31581 38.0539 7.30953 38.3827 7.29386 38.7189C7.28008 39.0552 7.25063 39.3799 7.20552 39.6942C7.15883 40.0092 7.08991 40.293 6.99592 40.547C6.90192 40.8008 6.77659 41.0045 6.61963 41.1607C6.52156 41.2567 6.40032 41.3442 6.25119 41.4248C6.10174 41.5032 5.94697 41.5558 5.78436 41.5833L5.91376 42.4042C6.06884 42.4026 6.21954 42.3848 6.37086 42.3479C6.51968 42.3123 6.66068 42.2654 6.79227 42.2085C6.92323 42.152 7.03696 42.0932 7.1369 42.0289C7.35684 41.8764 7.53919 41.6829 7.68582 41.4501C7.83119 41.2154 7.94679 40.9517 8.03264 40.6586C8.11943 40.3633 8.18397 40.0498 8.22501 39.7177C8.26825 39.3833 8.2955 39.0436 8.30741 38.6936C8.3212 38.3433 8.32715 37.9974 8.32496 37.653V35.2603H10.9364V42.3104H11.9712V34.4034H7.31361V34.4034ZM17.8404 39.8236L18.6872 42.3104H19.781L17.0759 34.4034H15.8528L13.1474 42.3104H14.206L15.0291 39.8236H17.8404V39.8236ZM15.2409 39.0258L16.0172 36.7384C16.0993 36.4959 16.172 36.2552 16.235 36.0127C16.2995 35.7721 16.3603 35.5356 16.4173 35.3068H16.4405C16.4976 35.5337 16.5605 35.7687 16.6251 36.0071C16.6899 36.2452 16.7661 36.4918 16.8519 36.7496L17.6405 39.0258H15.2409V39.0258ZM22.4504 42.3104H23.4852V35.2718H25.9086V34.4034H20.0398V35.2718H22.4504V42.3104V42.3104ZM29.9891 34.2631C29.4581 34.2647 28.9681 34.3628 28.5232 34.5584C28.0761 34.7537 27.6901 35.0334 27.3611 35.3968C27.0315 35.7624 26.7768 36.1987 26.596 36.7071C26.4137 37.2174 26.3219 37.7861 26.3197 38.4161C26.3219 39.0158 26.408 39.5611 26.5807 40.0539C26.7533 40.5451 26.9961 40.9689 27.3119 41.3254C27.6277 41.6811 28.004 41.9545 28.4389 42.1479C28.8741 42.3398 29.3544 42.4376 29.8835 42.4395C30.2896 42.4395 30.6775 42.3807 31.044 42.2654C31.4106 42.152 31.748 41.9798 32.0535 41.7532C32.3596 41.5264 32.6262 41.247 32.8512 40.9108C33.0771 40.5764 33.2538 40.1892 33.3766 39.7489C33.5 39.3089 33.563 38.8168 33.5649 38.2749C33.563 37.6824 33.4787 37.143 33.312 36.6543C33.1457 36.1637 32.906 35.7409 32.5927 35.3853C32.281 35.0278 31.9047 34.7518 31.4657 34.5584C31.0284 34.3643 30.5349 34.2647 29.9891 34.2631V34.2631ZM29.954 35.0956C30.2952 35.0978 30.601 35.1584 30.872 35.2799C31.1443 35.399 31.3793 35.5649 31.5814 35.7743C31.7834 35.9852 31.952 36.2281 32.0851 36.5015C32.2186 36.7752 32.3185 37.0687 32.385 37.3774C32.4495 37.6883 32.483 38.0033 32.483 38.3221C32.483 38.7736 32.4263 39.198 32.3145 39.593C32.2023 39.988 32.0378 40.3355 31.8226 40.6367C31.6048 40.938 31.3401 41.1745 31.0243 41.3467C30.7091 41.5164 30.3482 41.6029 29.9424 41.607C29.6169 41.6045 29.3215 41.5482 29.0545 41.4364C28.7879 41.3229 28.5526 41.1664 28.3471 40.9654C28.1409 40.7639 27.9683 40.5273 27.8292 40.2595C27.6882 39.9895 27.582 39.6964 27.5099 39.3798C27.4394 39.0633 27.4018 38.7342 27.4018 38.3924C27.4018 38.0465 27.4354 37.7102 27.5043 37.3871C27.5704 37.0646 27.6728 36.7637 27.8095 36.4862C27.9451 36.2102 28.1156 35.9677 28.3192 35.759C28.5232 35.5515 28.7625 35.3893 29.0351 35.2734C29.3074 35.1565 29.6128 35.0978 29.954 35.0956V35.0956ZM34.0236 34.4034L36.6581 39.753C36.7051 39.8452 36.7346 39.9252 36.7424 39.9977C36.75 40.0695 36.7346 40.1479 36.6936 40.2342C36.629 40.377 36.5504 40.5273 36.4564 40.6817C36.3621 40.8383 36.2524 40.9826 36.1249 41.1198C35.9974 41.2567 35.8523 41.3661 35.6897 41.452C35.5268 41.5361 35.3426 41.5811 35.1408 41.5833C35.0531 41.5833 34.9785 41.581 34.9156 41.5751C34.8526 41.5695 34.7996 41.5595 34.7526 41.5482L34.6586 42.3807C34.7235 42.4042 34.8018 42.422 34.8936 42.4335C34.9876 42.4451 35.1013 42.451 35.2348 42.451C35.5857 42.451 35.9097 42.3691 36.2035 42.2066C36.4971 42.0426 36.7719 41.8004 37.0225 41.4773C37.1638 41.2936 37.3014 41.0864 37.4323 40.852C37.5658 40.617 37.6933 40.3689 37.8168 40.1051C37.9405 39.8411 38.0599 39.5711 38.1736 39.2974C38.2889 39.0217 38.3989 38.7524 38.5051 38.4861L40.175 34.4034H39.0925L37.8462 37.7589C37.7522 38.0383 37.6657 38.2961 37.5871 38.5311C37.5091 38.7636 37.4342 38.9808 37.3637 39.1783H37.3286C37.2403 38.9499 37.15 38.7205 37.056 38.4902C36.962 38.2611 36.8637 38.0287 36.7641 37.7943L35.1881 34.4034H34.0236V34.4034ZM46.3493 41.2429C46.2102 41.3092 46.0514 41.3679 45.8712 41.417C45.6908 41.4657 45.499 41.5032 45.2947 41.5301C45.0892 41.5579 44.8812 41.571 44.6678 41.571C44.0265 41.5676 43.4798 41.4382 43.0289 41.1801C42.5781 40.9223 42.2328 40.5567 41.9938 40.0817C41.755 39.6083 41.6347 39.0452 41.6331 38.3924C41.6347 37.8718 41.7093 37.4108 41.8546 37.0059C42.0013 36.6034 42.2115 36.2609 42.4816 35.9834C42.7541 35.7037 43.0797 35.4928 43.4585 35.3478C43.8382 35.2034 44.2596 35.1312 44.7267 35.1312C45.0579 35.1331 45.3574 35.164 45.6259 35.2253C45.895 35.2856 46.1241 35.364 46.3139 35.4593L46.5727 34.6262C46.4825 34.5775 46.3515 34.5268 46.1808 34.4722C46.0103 34.419 45.8011 34.3725 45.5539 34.335C45.3045 34.2959 45.0165 34.2768 44.6907 34.2747C44.0738 34.2768 43.5133 34.3765 43.007 34.574C42.5013 34.7715 42.0661 35.0531 41.6996 35.4187C41.333 35.7843 41.0507 36.2218 40.8527 36.7284C40.6528 37.2368 40.5532 37.804 40.5507 38.4274C40.5547 39.0786 40.6528 39.6533 40.8467 40.1536C41.041 40.6523 41.3133 41.0707 41.6667 41.4095C42.0176 41.7492 42.4292 42.0054 42.903 42.1792C43.3757 42.3513 43.893 42.4395 44.456 42.4395C44.779 42.4376 45.0754 42.4198 45.3461 42.3848C45.6162 42.3479 45.8559 42.3007 46.0595 42.2442C46.2632 42.1873 46.4261 42.1285 46.5495 42.0639L46.3493 41.2429ZM49.348 42.3104H50.3831V35.2718H52.8066V34.4034H46.9374V35.2718H49.348V42.3104V42.3104ZM56.8871 34.2631C56.356 34.2647 55.866 34.3628 55.4208 34.5584C54.974 34.7537 54.588 35.0334 54.2587 35.3968C53.9291 35.7624 53.6747 36.1987 53.494 36.7071C53.3116 37.2174 53.2198 37.7861 53.2176 38.4161C53.2198 39.0158 53.3057 39.5611 53.4783 40.0539C53.6509 40.5451 53.8941 40.9689 54.2099 41.3254C54.5257 41.6811 54.902 41.9545 55.3365 42.1479C55.7717 42.3398 56.252 42.4376 56.7815 42.4395C57.1872 42.4395 57.5751 42.3807 57.9416 42.2654C58.3082 42.152 58.646 41.9798 58.9514 41.7532C59.2572 41.5264 59.5242 41.247 59.7491 40.9108C59.975 40.5764 60.1514 40.1892 60.2745 39.7489C60.398 39.3089 60.4609 38.8168 60.4625 38.2749C60.4609 37.6824 60.3767 37.143 60.2097 36.6543C60.0436 36.1637 59.804 35.7409 59.4906 35.3853C59.1789 35.0278 58.8023 34.7518 58.3637 34.5584C57.9263 34.3643 57.4325 34.2647 56.8871 34.2631V34.2631ZM56.852 35.0956C57.1931 35.0978 57.4989 35.1584 57.7696 35.2799C58.0422 35.399 58.2772 35.5649 58.4793 35.7743C58.6814 35.9852 58.8499 36.2281 58.9831 36.5015C59.1166 36.7752 59.2165 37.0687 59.2826 37.3774C59.3474 37.6883 59.381 38.0033 59.381 38.3221C59.381 38.7736 59.3243 39.198 59.2124 39.593C59.1003 39.988 58.9358 40.3355 58.7205 40.6367C58.5028 40.938 58.238 41.1745 57.9222 41.3467C57.607 41.5164 57.2461 41.6029 56.8404 41.607C56.5149 41.6045 56.2191 41.5482 55.9525 41.4364C55.6858 41.3229 55.4502 41.1664 55.2447 40.9654C55.0389 40.7639 54.8663 40.5273 54.7271 40.2595C54.5862 39.9895 54.4799 39.6964 54.4079 39.3798C54.3374 39.0633 54.2998 38.7342 54.2998 38.3924C54.2998 38.0465 54.3333 37.7102 54.4019 37.3871C54.4684 37.0646 54.5705 36.7637 54.7074 36.4862C54.8431 36.2102 55.0132 35.9677 55.2171 35.759C55.4208 35.5515 55.6605 35.3893 55.9331 35.2734C56.2053 35.1565 56.5108 35.0978 56.852 35.0956V35.0956ZM61.7915 42.2867C61.9623 42.3104 62.1816 42.3316 62.4482 42.3513C62.7152 42.3691 63.0269 42.3788 63.3794 42.3807C64.0267 42.3807 64.5756 42.322 65.0264 42.201C65.4788 42.0795 65.8398 41.8942 66.1083 41.642C66.316 41.4542 66.483 41.2292 66.6039 40.9654C66.7258 40.7011 66.7882 40.3983 66.7907 40.058C66.7882 39.7648 66.7374 39.5048 66.6415 39.2795C66.5435 39.0552 66.416 38.8593 66.2555 38.6993C66.0945 38.5368 65.92 38.4061 65.7279 38.3043C65.5378 38.2024 65.3457 38.1305 65.1558 38.0874V38.0521C65.4322 37.9524 65.669 37.8155 65.8692 37.6433C66.0688 37.4712 66.2236 37.2721 66.3317 37.0452C66.4394 36.8183 66.4943 36.5759 66.4962 36.3156C66.4943 36.0046 66.4338 35.7312 66.316 35.4987C66.1966 35.2659 66.0337 35.0725 65.826 34.92C65.6672 34.7868 65.4848 34.6775 65.2793 34.5934C65.0731 34.5093 64.836 34.4468 64.5715 34.4059C64.3049 34.3643 64.0013 34.3447 63.6617 34.3447C63.4245 34.3447 63.1914 34.3528 62.9621 34.3665C62.7324 34.3822 62.5187 34.4019 62.3191 34.4287C62.1171 34.4547 61.9426 34.4859 61.7915 34.5209V42.2867V42.2867ZM62.8148 35.2015C62.8953 35.1818 63.0072 35.1665 63.1519 35.1525C63.297 35.1387 63.4875 35.1312 63.7206 35.1312C64.0677 35.129 64.3713 35.174 64.6282 35.2622C64.8873 35.35 65.0888 35.4887 65.232 35.6806C65.3752 35.8699 65.4478 36.1165 65.4494 36.4215C65.4494 36.6777 65.3808 36.9065 65.2457 37.1077C65.1107 37.3071 64.9162 37.4655 64.6618 37.5805C64.4089 37.698 64.1028 37.7568 63.7444 37.7589H62.8148V35.2015V35.2015ZM62.8148 38.5214H63.6617C63.944 38.5214 64.2068 38.5508 64.4537 38.6096C64.699 38.6683 64.9162 38.7599 65.1045 38.883C65.2924 39.0061 65.4397 39.1645 65.5459 39.358C65.6515 39.5495 65.7063 39.7805 65.7082 40.0464C65.7063 40.3314 65.6493 40.5745 65.5396 40.7714C65.43 40.9689 65.2793 41.1279 65.0888 41.247C64.8964 41.366 64.6812 41.452 64.4381 41.5048C64.1953 41.5579 63.9399 41.5851 63.6733 41.5833C63.4916 41.5833 63.3286 41.5792 63.1873 41.5735C63.0441 41.5654 62.9207 41.5539 62.8148 41.536V38.5214V38.5214ZM73.4942 41.2429C73.3551 41.3092 73.1962 41.3679 73.0164 41.417C72.8356 41.4657 72.6439 41.5032 72.4396 41.5301C72.234 41.5579 72.0263 41.571 71.8127 41.571C71.1713 41.5676 70.6246 41.4382 70.1737 41.1801C69.7229 40.9223 69.3776 40.5567 69.1389 40.0817C68.8999 39.6083 68.7798 39.0452 68.778 38.3924C68.7798 37.8718 68.8541 37.4108 68.9998 37.0059C69.1464 36.6034 69.3563 36.2609 69.6267 35.9834C69.899 35.7037 70.2245 35.4928 70.6033 35.3478C70.983 35.2034 71.4044 35.1312 71.8716 35.1312C72.203 35.1331 72.5025 35.164 72.771 35.2253C73.0399 35.2856 73.2692 35.364 73.4591 35.4593L73.7176 34.6262C73.6276 34.5775 73.4967 34.5268 73.3256 34.4722C73.1555 34.419 72.9459 34.3725 72.6987 34.335C72.4493 34.2959 72.1613 34.2768 71.8358 34.2747C71.2186 34.2768 70.6581 34.3765 70.1518 34.574C69.6461 34.7715 69.211 35.0531 68.8444 35.4187C68.4778 35.7843 68.1955 36.2218 67.9975 36.7284C67.7979 37.2368 67.698 37.804 67.6958 38.4274C67.6996 39.0786 67.7979 39.6533 67.9919 40.1536C68.1858 40.6523 68.4581 41.0707 68.8115 41.4095C69.1624 41.7492 69.5741 42.0054 70.0481 42.1792C70.5209 42.3513 71.0378 42.4395 71.6008 42.4395C71.9242 42.4376 72.2202 42.4198 72.4909 42.3848C72.761 42.3479 73.0007 42.3007 73.2044 42.2442C73.4083 42.1873 73.5709 42.1285 73.6944 42.0639L73.4942 41.2429V41.2429ZM74.9877 34.4034V42.3104H76.011V38.6855H76.3405C76.6736 38.6855 76.96 38.7286 77.199 38.8127C77.4362 38.8986 77.6401 39.0177 77.8068 39.1742C77.9732 39.3286 78.1145 39.5145 78.2301 39.7298C78.3479 39.9445 78.45 40.183 78.54 40.4448C78.6145 40.6545 78.6891 40.8676 78.7633 41.0845C78.8379 41.3035 78.9162 41.5164 78.9983 41.726C79.081 41.9332 79.1709 42.1285 79.269 42.3104H80.3631C80.2509 42.076 80.1472 41.8373 80.0529 41.597C79.9589 41.3542 79.869 41.1082 79.7788 40.8539C79.6888 40.5998 79.5924 40.3395 79.4924 40.0695C79.3944 39.8017 79.2847 39.5536 79.1612 39.3252C79.04 39.0961 78.8943 38.8927 78.7242 38.7149C78.5556 38.5368 78.3535 38.3883 78.1163 38.2708C77.8792 38.1533 77.5969 38.0733 77.2695 38.0287L80.2688 34.4034H79.0456L76.3286 37.9111H76.011V34.4034H74.9877V34.4034ZM81.3622 34.4034V42.3104H82.456L84.9377 38.3686C85.2124 37.933 85.4753 37.4908 85.7297 37.0434C85.985 36.5956 86.2122 36.154 86.408 35.7174L86.4431 35.7296C86.4161 36.0599 86.3964 36.3899 86.3826 36.7202C86.3689 37.053 86.3613 37.4008 86.3554 37.7624C86.3513 38.1264 86.3491 38.5189 86.3491 38.9433V42.3104H87.3138V34.4034H86.2908L83.7267 38.4743C83.4385 38.9417 83.1719 39.393 82.9265 39.827C82.6819 40.2595 82.4625 40.6817 82.268 41.0904L82.2326 41.0789C82.2564 40.7289 82.2743 40.3748 82.2874 40.0189C82.3015 39.663 82.3112 39.2973 82.3194 38.9205C82.325 38.5427 82.3269 38.1477 82.3269 37.7355V34.4034H81.3622V34.4034ZM93.1948 37.7589H90.1251V35.2603H93.3831V34.4034H89.0899V42.3104H93.5595V41.4542H90.1251V38.6036H93.1948V37.7589V37.7589ZM159.699 34.4034V42.3104H160.734V38.6036H164.568V42.3104H165.603V34.4034H164.568V37.7118H160.734V34.4034H159.699ZM170.578 34.2631C170.047 34.2647 169.557 34.3628 169.112 34.5584C168.665 34.7537 168.279 35.0334 167.95 35.3968C167.62 35.7624 167.365 36.1987 167.185 36.7071C167.002 37.2174 166.91 37.7861 166.908 38.4161C166.91 39.0158 166.997 39.5611 167.169 40.0539C167.342 40.5451 167.585 40.9689 167.9 41.3254C168.216 41.6811 168.593 41.9545 169.027 42.1479C169.463 42.3398 169.943 42.4376 170.472 42.4395C170.878 42.4395 171.266 42.3807 171.633 42.2654C171.999 42.152 172.337 41.9798 172.642 41.7532C172.948 41.5264 173.215 41.247 173.44 40.9108C173.666 40.5764 173.842 40.1892 173.965 39.7489C174.089 39.3089 174.152 38.8168 174.153 38.2749C174.152 37.6824 174.067 37.143 173.901 36.6543C173.734 36.1637 173.495 35.7409 173.181 35.3853C172.869 35.0278 172.493 34.7518 172.055 34.5584C171.617 34.3643 171.123 34.2647 170.578 34.2631V34.2631ZM170.543 35.0956C170.884 35.0978 171.19 35.1584 171.461 35.2799C171.733 35.399 171.968 35.5649 172.17 35.7743C172.372 35.9852 172.54 36.2281 172.674 36.5015C172.807 36.7752 172.907 37.0687 172.973 37.3774C173.038 37.6883 173.072 38.0033 173.072 38.3221C173.072 38.7736 173.015 39.198 172.903 39.593C172.791 39.988 172.626 40.3355 172.411 40.6367C172.194 40.938 171.929 41.1745 171.613 41.3467C171.298 41.5164 170.937 41.6029 170.531 41.607C170.205 41.6045 169.91 41.5482 169.643 41.4364C169.376 41.3229 169.141 41.1664 168.936 40.9654C168.729 40.7639 168.557 40.5273 168.418 40.2595C168.277 39.9895 168.171 39.6964 168.098 39.3798C168.028 39.0633 167.991 38.7342 167.991 38.3924C167.991 38.0465 168.024 37.7102 168.093 37.3871C168.159 37.0646 168.261 36.7637 168.398 36.4862C168.534 36.2102 168.704 35.9677 168.908 35.759C169.112 35.5515 169.351 35.3893 169.624 35.2734C169.896 35.1565 170.201 35.0978 170.543 35.0956V35.0956ZM174.847 34.4034L177.646 38.0405C177.339 38.0793 177.074 38.1533 176.848 38.2652C176.625 38.3767 176.431 38.5189 176.269 38.6952C176.108 38.8714 175.966 39.0764 175.845 39.3089C175.726 39.542 175.616 39.8001 175.518 40.0817C175.434 40.3279 175.351 40.5764 175.271 40.8267C175.192 41.0767 175.108 41.3254 175.02 41.5735C174.931 41.8217 174.83 42.0679 174.718 42.3104H175.764C175.851 42.1326 175.93 41.9351 176.004 41.7198C176.076 41.5048 176.147 41.2895 176.214 41.0708C176.28 40.852 176.345 40.6464 176.412 40.457C176.504 40.1852 176.604 39.943 176.709 39.7236C176.817 39.5064 176.945 39.3211 177.094 39.1667C177.243 39.0121 177.427 38.8927 177.646 38.8105C177.864 38.7286 178.131 38.6855 178.446 38.6855H178.811V42.3104H179.799V38.6855H180.152C180.467 38.6855 180.734 38.7286 180.953 38.8105C181.171 38.8927 181.355 39.0121 181.504 39.1667C181.654 39.3211 181.781 39.5064 181.889 39.7236C181.994 39.943 182.095 40.1852 182.187 40.457C182.249 40.6464 182.312 40.852 182.379 41.0708C182.443 41.2895 182.514 41.5048 182.586 41.7198C182.661 41.9351 182.744 42.1326 182.834 42.3104H183.88C183.772 42.0679 183.674 41.8217 183.59 41.5735C183.506 41.3254 183.423 41.0748 183.347 40.8226C183.271 40.5704 183.189 40.3201 183.104 40.0695C183.006 39.7864 182.897 39.5283 182.775 39.2933C182.653 39.0592 182.51 38.8536 182.345 38.6758C182.181 38.5002 181.984 38.3574 181.758 38.2474C181.53 38.1402 181.261 38.0693 180.952 38.0405L183.762 34.4034H182.575L180.117 37.9111H179.799V34.4034H178.811V37.9111H178.493L176.035 34.4034H174.847V34.4034ZM184.903 34.4034V42.3104H185.997L188.479 38.3686C188.753 37.933 189.016 37.4908 189.27 37.0434C189.526 36.5956 189.753 36.154 189.949 35.7174L189.984 35.7296C189.957 36.0599 189.937 36.3899 189.923 36.7202C189.91 37.053 189.902 37.4008 189.896 37.7624C189.892 38.1264 189.89 38.5189 189.89 38.9433V42.3104H190.854V34.4034H189.832L187.267 38.4743C186.98 38.9417 186.713 39.393 186.467 39.827C186.223 40.2595 186.003 40.6817 185.809 41.0904L185.774 41.0789C185.797 40.7289 185.815 40.3748 185.828 40.0189C185.842 39.663 185.852 39.2973 185.86 38.9205C185.866 38.5427 185.868 38.1477 185.868 37.7355V34.4034H184.903V34.4034Z" fill="#1F1C21"/>
</svg>
